<svg width="45" height="39" viewBox="0 0 45 39" fill="none" xmlns="http://www.w3.org/2000/svg">
<path d="M24.75 39H9.75C9.55109 39 9.36032 38.921 9.21967 38.7803C9.07902 38.6397 9 38.4489 9 38.25V12.75C9 12.5511 9.07902 12.3603 9.21967 12.2197C9.36032 12.079 9.55109 12 9.75 12H24.75C24.9489 12 25.1397 12.079 25.2803 12.2197C25.421 12.3603 25.5 12.5511 25.5 12.75V38.25C25.5 38.4489 25.421 38.6397 25.2803 38.7803C25.1397 38.921 24.9489 39 24.75 39ZM10.5 37.5H24V13.5H10.5V37.5Z" fill="#0676BC"/>
<path d="M24.75 13.5H9.75C9.15326 13.5 8.58097 13.2629 8.15901 12.841C7.73705 12.419 7.5 11.8467 7.5 11.25C7.5 10.6533 7.73705 10.081 8.15901 9.65901C8.58097 9.23705 9.15326 9 9.75 9H24.75C25.3467 9 25.919 9.23705 26.341 9.65901C26.7629 10.081 27 10.6533 27 11.25C27 11.8467 26.7629 12.419 26.341 12.841C25.919 13.2629 25.3467 13.5 24.75 13.5ZM9.75 10.5C9.55109 10.5 9.36032 10.579 9.21967 10.7197C9.07902 10.8603 9 11.0511 9 11.25C9 11.4489 9.07902 11.6397 9.21967 11.7803C9.36032 11.921 9.55109 12 9.75 12H24.75C24.9489 12 25.1397 11.921 25.2803 11.7803C25.421 11.6397 25.5 11.4489 25.5 11.25C25.5 11.0511 25.421 10.8603 25.2803 10.7197C25.1397 10.579 24.9489 10.5 24.75 10.5H9.75Z" fill="#0676BC"/>
<path d="M20.25 39H14.25C14.0511 39 13.8603 38.921 13.7197 38.7803C13.579 38.6397 13.5 38.4489 13.5 38.25V30.75C13.5 30.5511 13.579 30.3603 13.7197 30.2197C13.8603 30.079 14.0511 30 14.25 30H20.25C20.4489 30 20.6397 30.079 20.7803 30.2197C20.921 30.3603 21 30.5511 21 30.75V38.25C21 38.4489 20.921 38.6397 20.7803 38.7803C20.6397 38.921 20.4489 39 20.25 39ZM15 37.5H19.5V31.5H15V37.5Z" fill="#0676BC"/>
<path d="M14.25 16.5H12.75C12.5511 16.5 12.3603 16.421 12.2197 16.2803C12.079 16.1397 12 15.9489 12 15.75C12 15.5511 12.079 15.3603 12.2197 15.2197C12.3603 15.079 12.5511 15 12.75 15H14.25C14.4489 15 14.6397 15.079 14.7803 15.2197C14.921 15.3603 15 15.5511 15 15.75C15 15.9489 14.921 16.1397 14.7803 16.2803C14.6397 16.421 14.4489 16.5 14.25 16.5Z" fill="#0676BC"/>
<path d="M18 16.5H16.5C16.3011 16.5 16.1103 16.421 15.9697 16.2803C15.829 16.1397 15.75 15.9489 15.75 15.75C15.75 15.5511 15.829 15.3603 15.9697 15.2197C16.1103 15.079 16.3011 15 16.5 15H18C18.1989 15 18.3897 15.079 18.5303 15.2197C18.671 15.3603 18.75 15.5511 18.75 15.75C18.75 15.9489 18.671 16.1397 18.5303 16.2803C18.3897 16.421 18.1989 16.5 18 16.5Z" fill="#0676BC"/>
<path d="M21.75 16.5H20.25C20.0511 16.5 19.8603 16.421 19.7197 16.2803C19.579 16.1397 19.5 15.9489 19.5 15.75C19.5 15.5511 19.579 15.3603 19.7197 15.2197C19.8603 15.079 20.0511 15 20.25 15H21.75C21.9489 15 22.1397 15.079 22.2803 15.2197C22.421 15.3603 22.5 15.5511 22.5 15.75C22.5 15.9489 22.421 16.1397 22.2803 16.2803C22.1397 16.421 21.9489 16.5 21.75 16.5Z" fill="#0676BC"/>
<path d="M14.25 19.5H12.75C12.5511 19.5 12.3603 19.421 12.2197 19.2803C12.079 19.1397 12 18.9489 12 18.75C12 18.5511 12.079 18.3603 12.2197 18.2197C12.3603 18.079 12.5511 18 12.75 18H14.25C14.4489 18 14.6397 18.079 14.7803 18.2197C14.921 18.3603 15 18.5511 15 18.75C15 18.9489 14.921 19.1397 14.7803 19.2803C14.6397 19.421 14.4489 19.5 14.25 19.5Z" fill="#0676BC"/>
<path d="M18 19.5H16.5C16.3011 19.5 16.1103 19.421 15.9697 19.2803C15.829 19.1397 15.75 18.9489 15.75 18.75C15.75 18.5511 15.829 18.3603 15.9697 18.2197C16.1103 18.079 16.3011 18 16.5 18H18C18.1989 18 18.3897 18.079 18.5303 18.2197C18.671 18.3603 18.75 18.5511 18.75 18.75C18.75 18.9489 18.671 19.1397 18.5303 19.2803C18.3897 19.421 18.1989 19.5 18 19.5Z" fill="#0676BC"/>
<path d="M21.75 19.5H20.25C20.0511 19.5 19.8603 19.421 19.7197 19.2803C19.579 19.1397 19.5 18.9489 19.5 18.75C19.5 18.5511 19.579 18.3603 19.7197 18.2197C19.8603 18.079 20.0511 18 20.25 18H21.75C21.9489 18 22.1397 18.079 22.2803 18.2197C22.421 18.3603 22.5 18.5511 22.5 18.75C22.5 18.9489 22.421 19.1397 22.2803 19.2803C22.1397 19.421 21.9489 19.5 21.75 19.5Z" fill="#0676BC"/>
<path d="M14.25 22.5H12.75C12.5511 22.5 12.3603 22.421 12.2197 22.2803C12.079 22.1397 12 21.9489 12 21.75C12 21.5511 12.079 21.3603 12.2197 21.2197C12.3603 21.079 12.5511 21 12.75 21H14.25C14.4489 21 14.6397 21.079 14.7803 21.2197C14.921 21.3603 15 21.5511 15 21.75C15 21.9489 14.921 22.1397 14.7803 22.2803C14.6397 22.421 14.4489 22.5 14.25 22.5Z" fill="#0676BC"/>
<path d="M18 22.5H16.5C16.3011 22.5 16.1103 22.421 15.9697 22.2803C15.829 22.1397 15.75 21.9489 15.75 21.75C15.75 21.5511 15.829 21.3603 15.9697 21.2197C16.1103 21.079 16.3011 21 16.5 21H18C18.1989 21 18.3897 21.079 18.5303 21.2197C18.671 21.3603 18.75 21.5511 18.75 21.75C18.75 21.9489 18.671 22.1397 18.5303 22.2803C18.3897 22.421 18.1989 22.5 18 22.5Z" fill="#0676BC"/>
<path d="M21.75 22.5H20.25C20.0511 22.5 19.8603 22.421 19.7197 22.2803C19.579 22.1397 19.5 21.9489 19.5 21.75C19.5 21.5511 19.579 21.3603 19.7197 21.2197C19.8603 21.079 20.0511 21 20.25 21H21.75C21.9489 21 22.1397 21.079 22.2803 21.2197C22.421 21.3603 22.5 21.5511 22.5 21.75C22.5 21.9489 22.421 22.1397 22.2803 22.2803C22.1397 22.421 21.9489 22.5 21.75 22.5Z" fill="#0676BC"/>
<path d="M14.25 25.5H12.75C12.5511 25.5 12.3603 25.421 12.2197 25.2803C12.079 25.1397 12 24.9489 12 24.75C12 24.5511 12.079 24.3603 12.2197 24.2197C12.3603 24.079 12.5511 24 12.75 24H14.25C14.4489 24 14.6397 24.079 14.7803 24.2197C14.921 24.3603 15 24.5511 15 24.75C15 24.9489 14.921 25.1397 14.7803 25.2803C14.6397 25.421 14.4489 25.5 14.25 25.5Z" fill="#0676BC"/>
<path d="M18 25.5H16.5C16.3011 25.5 16.1103 25.421 15.9697 25.2803C15.829 25.1397 15.75 24.9489 15.75 24.75C15.75 24.5511 15.829 24.3603 15.9697 24.2197C16.1103 24.079 16.3011 24 16.5 24H18C18.1989 24 18.3897 24.079 18.5303 24.2197C18.671 24.3603 18.75 24.5511 18.75 24.75C18.75 24.9489 18.671 25.1397 18.5303 25.2803C18.3897 25.421 18.1989 25.5 18 25.5Z" fill="#0676BC"/>
<path d="M21.75 25.5H20.25C20.0511 25.5 19.8603 25.421 19.7197 25.2803C19.579 25.1397 19.5 24.9489 19.5 24.75C19.5 24.5511 19.579 24.3603 19.7197 24.2197C19.8603 24.079 20.0511 24 20.25 24H21.75C21.9489 24 22.1397 24.079 22.2803 24.2197C22.421 24.3603 22.5 24.5511 22.5 24.75C22.5 24.9489 22.421 25.1397 22.2803 25.2803C22.1397 25.421 21.9489 25.5 21.75 25.5Z" fill="#0676BC"/>
<path d="M14.25 28.5H12.75C12.5511 28.5 12.3603 28.421 12.2197 28.2803C12.079 28.1397 12 27.9489 12 27.75C12 27.5511 12.079 27.3603 12.2197 27.2197C12.3603 27.079 12.5511 27 12.75 27H14.25C14.4489 27 14.6397 27.079 14.7803 27.2197C14.921 27.3603 15 27.5511 15 27.75C15 27.9489 14.921 28.1397 14.7803 28.2803C14.6397 28.421 14.4489 28.5 14.25 28.5Z" fill="#0676BC"/>
<path d="M18 28.5H16.5C16.3011 28.5 16.1103 28.421 15.9697 28.2803C15.829 28.1397 15.75 27.9489 15.75 27.75C15.75 27.5511 15.829 27.3603 15.9697 27.2197C16.1103 27.079 16.3011 27 16.5 27H18C18.1989 27 18.3897 27.079 18.5303 27.2197C18.671 27.3603 18.75 27.5511 18.75 27.75C18.75 27.9489 18.671 28.1397 18.5303 28.2803C18.3897 28.421 18.1989 28.5 18 28.5Z" fill="#0676BC"/>
<path d="M21.75 28.5H20.25C20.0511 28.5 19.8603 28.421 19.7197 28.2803C19.579 28.1397 19.5 27.9489 19.5 27.75C19.5 27.5511 19.579 27.3603 19.7197 27.2197C19.8603 27.079 20.0511 27 20.25 27H21.75C21.9489 27 22.1397 27.079 22.2803 27.2197C22.421 27.3603 22.5 27.5511 22.5 27.75C22.5 27.9489 22.421 28.1397 22.2803 28.2803C22.1397 28.421 21.9489 28.5 21.75 28.5Z" fill="#0676BC"/>
<path d="M36 39H21C20.8011 39 20.6103 38.921 20.4697 38.7803C20.329 38.6397 20.25 38.4489 20.25 38.25C20.25 38.0511 20.329 37.8603 20.4697 37.7197C20.6103 37.579 20.8011 37.5 21 37.5H35.25V4.5H21.75V9.75C21.75 9.94891 21.671 10.1397 21.5303 10.2803C21.3897 10.421 21.1989 10.5 21 10.5C20.8011 10.5 20.6103 10.421 20.4697 10.2803C20.329 10.1397 20.25 9.94891 20.25 9.75V3.75C20.25 3.55109 20.329 3.36032 20.4697 3.21967C20.6103 3.07902 20.8011 3 21 3H36C36.1989 3 36.3897 3.07902 36.5303 3.21967C36.671 3.36032 36.75 3.55109 36.75 3.75V38.25C36.75 38.4489 36.671 38.6397 36.5303 38.7803C36.3897 38.921 36.1989 39 36 39Z" fill="#0676BC"/>
<path d="M36 4.5H21C20.4033 4.5 19.831 4.26295 19.409 3.84099C18.9871 3.41903 18.75 2.84674 18.75 2.25C18.75 1.65326 18.9871 1.08097 19.409 0.65901C19.831 0.237053 20.4033 0 21 0H36C36.5967 0 37.169 0.237053 37.591 0.65901C38.0129 1.08097 38.25 1.65326 38.25 2.25C38.25 2.84674 38.0129 3.41903 37.591 3.84099C37.169 4.26295 36.5967 4.5 36 4.5ZM21 1.5C20.8011 1.5 20.6103 1.57902 20.4697 1.71967C20.329 1.86032 20.25 2.05109 20.25 2.25C20.25 2.44891 20.329 2.63968 20.4697 2.78033C20.6103 2.92098 20.8011 3 21 3H36C36.1989 3 36.3897 2.92098 36.5303 2.78033C36.671 2.63968 36.75 2.44891 36.75 2.25C36.75 2.05109 36.671 1.86032 36.5303 1.71967C36.3897 1.57902 36.1989 1.5 36 1.5H21Z" fill="#0676BC"/>
<path d="M29.25 16.5H27.75C27.5511 16.5 27.3603 16.421 27.2197 16.2803C27.079 16.1397 27 15.9489 27 15.75C27 15.5511 27.079 15.3603 27.2197 15.2197C27.3603 15.079 27.5511 15 27.75 15H29.25C29.4489 15 29.6397 15.079 29.7803 15.2197C29.921 15.3603 30 15.5511 30 15.75C30 15.9489 29.921 16.1397 29.7803 16.2803C29.6397 16.421 29.4489 16.5 29.25 16.5Z" fill="#0676BC"/>
<path d="M33 16.5H31.5C31.3011 16.5 31.1103 16.421 30.9697 16.2803C30.829 16.1397 30.75 15.9489 30.75 15.75C30.75 15.5511 30.829 15.3603 30.9697 15.2197C31.1103 15.079 31.3011 15 31.5 15H33C33.1989 15 33.3897 15.079 33.5303 15.2197C33.671 15.3603 33.75 15.5511 33.75 15.75C33.75 15.9489 33.671 16.1397 33.5303 16.2803C33.3897 16.421 33.1989 16.5 33 16.5Z" fill="#0676BC"/>
<path d="M29.25 13.5H27.75C27.5511 13.5 27.3603 13.421 27.2197 13.2803C27.079 13.1397 27 12.9489 27 12.75C27 12.5511 27.079 12.3603 27.2197 12.2197C27.3603 12.079 27.5511 12 27.75 12H29.25C29.4489 12 29.6397 12.079 29.7803 12.2197C29.921 12.3603 30 12.5511 30 12.75C30 12.9489 29.921 13.1397 29.7803 13.2803C29.6397 13.421 29.4489 13.5 29.25 13.5Z" fill="#0676BC"/>
<path d="M33 13.5H31.5C31.3011 13.5 31.1103 13.421 30.9697 13.2803C30.829 13.1397 30.75 12.9489 30.75 12.75C30.75 12.5511 30.829 12.3603 30.9697 12.2197C31.1103 12.079 31.3011 12 31.5 12H33C33.1989 12 33.3897 12.079 33.5303 12.2197C33.671 12.3603 33.75 12.5511 33.75 12.75C33.75 12.9489 33.671 13.1397 33.5303 13.2803C33.3897 13.421 33.1989 13.5 33 13.5Z" fill="#0676BC"/>
<path d="M29.25 10.5H27.75C27.5511 10.5 27.3603 10.421 27.2197 10.2803C27.079 10.1397 27 9.94891 27 9.75C27 9.55109 27.079 9.36032 27.2197 9.21967C27.3603 9.07902 27.5511 9 27.75 9H29.25C29.4489 9 29.6397 9.07902 29.7803 9.21967C29.921 9.36032 30 9.55109 30 9.75C30 9.94891 29.921 10.1397 29.7803 10.2803C29.6397 10.421 29.4489 10.5 29.25 10.5Z" fill="#0676BC"/>
<path d="M33 10.5H31.5C31.3011 10.5 31.1103 10.421 30.9697 10.2803C30.829 10.1397 30.75 9.94891 30.75 9.75C30.75 9.55109 30.829 9.36032 30.9697 9.21967C31.1103 9.07902 31.3011 9 31.5 9H33C33.1989 9 33.3897 9.07902 33.5303 9.21967C33.671 9.36032 33.75 9.55109 33.75 9.75C33.75 9.94891 33.671 10.1397 33.5303 10.2803C33.3897 10.421 33.1989 10.5 33 10.5Z" fill="#0676BC"/>
<path d="M29.25 7.5H27.75C27.5511 7.5 27.3603 7.42098 27.2197 7.28033C27.079 7.13968 27 6.94891 27 6.75C27 6.55109 27.079 6.36032 27.2197 6.21967C27.3603 6.07902 27.5511 6 27.75 6H29.25C29.4489 6 29.6397 6.07902 29.7803 6.21967C29.921 6.36032 30 6.55109 30 6.75C30 6.94891 29.921 7.13968 29.7803 7.28033C29.6397 7.42098 29.4489 7.5 29.25 7.5Z" fill="#0676BC"/>
<path d="M25.5 7.5H24C23.8011 7.5 23.6103 7.42098 23.4697 7.28033C23.329 7.13968 23.25 6.94891 23.25 6.75C23.25 6.55109 23.329 6.36032 23.4697 6.21967C23.6103 6.07902 23.8011 6 24 6H25.5C25.6989 6 25.8897 6.07902 26.0303 6.21967C26.171 6.36032 26.25 6.55109 26.25 6.75C26.25 6.94891 26.171 7.13968 26.0303 7.28033C25.8897 7.42098 25.6989 7.5 25.5 7.5Z" fill="#0676BC"/>
<path d="M33 7.5H31.5C31.3011 7.5 31.1103 7.42098 30.9697 7.28033C30.829 7.13968 30.75 6.94891 30.75 6.75C30.75 6.55109 30.829 6.36032 30.9697 6.21967C31.1103 6.07902 31.3011 6 31.5 6H33C33.1989 6 33.3897 6.07902 33.5303 6.21967C33.671 6.36032 33.75 6.55109 33.75 6.75C33.75 6.94891 33.671 7.13968 33.5303 7.28033C33.3897 7.42098 33.1989 7.5 33 7.5Z" fill="#0676BC"/>
<path d="M29.25 19.5H27.75C27.5511 19.5 27.3603 19.421 27.2197 19.2803C27.079 19.1397 27 18.9489 27 18.75C27 18.5511 27.079 18.3603 27.2197 18.2197C27.3603 18.079 27.5511 18 27.75 18H29.25C29.4489 18 29.6397 18.079 29.7803 18.2197C29.921 18.3603 30 18.5511 30 18.75C30 18.9489 29.921 19.1397 29.7803 19.2803C29.6397 19.421 29.4489 19.5 29.25 19.5Z" fill="#0676BC"/>
<path d="M33 19.5H31.5C31.3011 19.5 31.1103 19.421 30.9697 19.2803C30.829 19.1397 30.75 18.9489 30.75 18.75C30.75 18.5511 30.829 18.3603 30.9697 18.2197C31.1103 18.079 31.3011 18 31.5 18H33C33.1989 18 33.3897 18.079 33.5303 18.2197C33.671 18.3603 33.75 18.5511 33.75 18.75C33.75 18.9489 33.671 19.1397 33.5303 19.2803C33.3897 19.421 33.1989 19.5 33 19.5Z" fill="#0676BC"/>
<path d="M29.25 22.5H27.75C27.5511 22.5 27.3603 22.421 27.2197 22.2803C27.079 22.1397 27 21.9489 27 21.75C27 21.5511 27.079 21.3603 27.2197 21.2197C27.3603 21.079 27.5511 21 27.75 21H29.25C29.4489 21 29.6397 21.079 29.7803 21.2197C29.921 21.3603 30 21.5511 30 21.75C30 21.9489 29.921 22.1397 29.7803 22.2803C29.6397 22.421 29.4489 22.5 29.25 22.5Z" fill="#0676BC"/>
<path d="M33 22.5H31.5C31.3011 22.5 31.1103 22.421 30.9697 22.2803C30.829 22.1397 30.75 21.9489 30.75 21.75C30.75 21.5511 30.829 21.3603 30.9697 21.2197C31.1103 21.079 31.3011 21 31.5 21H33C33.1989 21 33.3897 21.079 33.5303 21.2197C33.671 21.3603 33.75 21.5511 33.75 21.75C33.75 21.9489 33.671 22.1397 33.5303 22.2803C33.3897 22.421 33.1989 22.5 33 22.5Z" fill="#0676BC"/>
<path d="M29.25 25.5H27.75C27.5511 25.5 27.3603 25.421 27.2197 25.2803C27.079 25.1397 27 24.9489 27 24.75C27 24.5511 27.079 24.3603 27.2197 24.2197C27.3603 24.079 27.5511 24 27.75 24H29.25C29.4489 24 29.6397 24.079 29.7803 24.2197C29.921 24.3603 30 24.5511 30 24.75C30 24.9489 29.921 25.1397 29.7803 25.2803C29.6397 25.421 29.4489 25.5 29.25 25.5Z" fill="#0676BC"/>
<path d="M33 25.5H31.5C31.3011 25.5 31.1103 25.421 30.9697 25.2803C30.829 25.1397 30.75 24.9489 30.75 24.75C30.75 24.5511 30.829 24.3603 30.9697 24.2197C31.1103 24.079 31.3011 24 31.5 24H33C33.1989 24 33.3897 24.079 33.5303 24.2197C33.671 24.3603 33.75 24.5511 33.75 24.75C33.75 24.9489 33.671 25.1397 33.5303 25.2803C33.3897 25.421 33.1989 25.5 33 25.5Z" fill="#0676BC"/>
<path d="M29.25 28.5H27.75C27.5511 28.5 27.3603 28.421 27.2197 28.2803C27.079 28.1397 27 27.9489 27 27.75C27 27.5511 27.079 27.3603 27.2197 27.2197C27.3603 27.079 27.5511 27 27.75 27H29.25C29.4489 27 29.6397 27.079 29.7803 27.2197C29.921 27.3603 30 27.5511 30 27.75C30 27.9489 29.921 28.1397 29.7803 28.2803C29.6397 28.421 29.4489 28.5 29.25 28.5Z" fill="#0676BC"/>
<path d="M33 28.5H31.5C31.3011 28.5 31.1103 28.421 30.9697 28.2803C30.829 28.1397 30.75 27.9489 30.75 27.75C30.75 27.5511 30.829 27.3603 30.9697 27.2197C31.1103 27.079 31.3011 27 31.5 27H33C33.1989 27 33.3897 27.079 33.5303 27.2197C33.671 27.3603 33.75 27.5511 33.75 27.75C33.75 27.9489 33.671 28.1397 33.5303 28.2803C33.3897 28.421 33.1989 28.5 33 28.5Z" fill="#0676BC"/>
<path d="M29.25 31.5H27.75C27.5511 31.5 27.3603 31.421 27.2197 31.2803C27.079 31.1397 27 30.9489 27 30.75C27 30.5511 27.079 30.3603 27.2197 30.2197C27.3603 30.079 27.5511 30 27.75 30H29.25C29.4489 30 29.6397 30.079 29.7803 30.2197C29.921 30.3603 30 30.5511 30 30.75C30 30.9489 29.921 31.1397 29.7803 31.2803C29.6397 31.421 29.4489 31.5 29.25 31.5Z" fill="#0676BC"/>
<path d="M33 31.5H31.5C31.3011 31.5 31.1103 31.421 30.9697 31.2803C30.829 31.1397 30.75 30.9489 30.75 30.75C30.75 30.5511 30.829 30.3603 30.9697 30.2197C31.1103 30.079 31.3011 30 31.5 30H33C33.1989 30 33.3897 30.079 33.5303 30.2197C33.671 30.3603 33.75 30.5511 33.75 30.75C33.75 30.9489 33.671 31.1397 33.5303 31.2803C33.3897 31.421 33.1989 31.5 33 31.5Z" fill="#0676BC"/>
<path d="M3.75 39C3.55109 39 3.36032 38.921 3.21967 38.7803C3.07902 38.6397 3 38.4489 3 38.25V33C3 32.8011 3.07902 32.6103 3.21967 32.4697C3.36032 32.329 3.55109 32.25 3.75 32.25C3.94891 32.25 4.13968 32.329 4.28033 32.4697C4.42098 32.6103 4.5 32.8011 4.5 33V38.25C4.5 38.4489 4.42098 38.6397 4.28033 38.7803C4.13968 38.921 3.94891 39 3.75 39Z" fill="#0676BC"/>
<path d="M3.75 35.25C2.7558 35.2488 1.80265 34.8534 1.09964 34.1504C0.396635 33.4473 0.00117109 32.4942 0 31.5C0 29.4192 1.63807 27 3.75 27C5.86193 27 7.5 29.4192 7.5 31.5C7.49883 32.4942 7.10336 33.4473 6.40036 34.1504C5.69735 34.8534 4.7442 35.2488 3.75 35.25ZM3.75 28.5C2.59095 28.5 1.5 30.1901 1.5 31.5C1.5 32.0967 1.73705 32.669 2.15901 33.091C2.58097 33.5129 3.15326 33.75 3.75 33.75C4.34674 33.75 4.91903 33.5129 5.34099 33.091C5.76295 32.669 6 32.0967 6 31.5C6 30.1901 4.90905 28.5 3.75 28.5Z" fill="#0676BC"/>
<path d="M41.25 39C41.0511 39 40.8603 38.921 40.7197 38.7803C40.579 38.6397 40.5 38.4489 40.5 38.25V33C40.5 32.8011 40.579 32.6103 40.7197 32.4697C40.8603 32.329 41.0511 32.25 41.25 32.25C41.4489 32.25 41.6397 32.329 41.7803 32.4697C41.921 32.6103 42 32.8011 42 33V38.25C42 38.4489 41.921 38.6397 41.7803 38.7803C41.6397 38.921 41.4489 39 41.25 39Z" fill="#0676BC"/>
<path d="M41.25 35.25C40.2558 35.2488 39.3027 34.8534 38.5996 34.1504C37.8966 33.4473 37.5012 32.4942 37.5 31.5C37.5 29.4192 39.1381 27 41.25 27C43.3619 27 45 29.4192 45 31.5C44.9988 32.4942 44.6034 33.4473 43.9004 34.1504C43.1973 34.8534 42.2442 35.2488 41.25 35.25ZM41.25 28.5C40.091 28.5 39 30.1901 39 31.5C39 32.0967 39.2371 32.669 39.659 33.091C40.081 33.5129 40.6533 33.75 41.25 33.75C41.8467 33.75 42.419 33.5129 42.841 33.091C43.2629 32.669 43.5 32.0967 43.5 31.5C43.5 30.1901 42.409 28.5 41.25 28.5Z" fill="#0676BC"/>
<path d="M43.5 39H1.5C1.30109 39 1.11032 38.921 0.96967 38.7803C0.829018 38.6397 0.75 38.4489 0.75 38.25C0.75 38.0511 0.829018 37.8603 0.96967 37.7197C1.11032 37.579 1.30109 37.5 1.5 37.5H43.5C43.6989 37.5 43.8897 37.579 44.0303 37.7197C44.171 37.8603 44.25 38.0511 44.25 38.25C44.25 38.4489 44.171 38.6397 44.0303 38.7803C43.8897 38.921 43.6989 39 43.5 39Z" fill="#0676BC"/>
</svg>
