<svg width="45" height="35" viewBox="0 0 45 35" fill="none" xmlns="http://www.w3.org/2000/svg">
<path d="M2.651 29.3293V29.5459C2.651 30.7495 3.6302 31.7287 4.83377 31.7287H23.0674C24.2709 31.7287 25.2501 30.7495 25.2501 29.5459V29.3293C25.2501 28.1258 24.2709 27.1466 23.0674 27.1466H4.83377C3.6302 27.1466 2.651 28.1258 2.651 29.3293ZM23.7984 29.3293V29.5459C23.7984 29.949 23.4704 30.277 23.0673 30.277H4.83377C4.43068 30.277 4.10261 29.9491 4.10261 29.5459V29.3293C4.10261 28.9262 4.43059 28.5982 4.83377 28.5982H23.0674C23.4704 28.5982 23.7984 28.9262 23.7984 29.3293ZM5.32514 16.5237L4.12829 18.5967C3.99392 18.8295 3.74987 18.9597 3.49902 18.9597C3.3759 18.9597 3.25115 18.9283 3.13684 18.8623C2.78972 18.6619 2.67069 18.218 2.87119 17.8709L4.06805 15.7979C4.26837 15.4507 4.71229 15.3316 5.0595 15.5322C5.40661 15.7326 5.52564 16.1765 5.32514 16.5237ZM8.78415 16.5237L7.58738 18.5967C7.45302 18.8295 7.20897 18.9597 6.95811 18.9597C6.835 18.9597 6.71025 18.9283 6.59593 18.8623C6.24882 18.6619 6.12979 18.218 6.33029 17.8709L7.52705 15.7979C7.72737 15.4507 8.17139 15.3316 8.5185 15.5322C8.86562 15.7325 8.98465 16.1765 8.78415 16.5237ZM28.6185 23.4754V24.2029C28.6185 24.6037 28.9435 24.9287 29.3443 24.9287H31.0878V30.9056C31.0878 32.8211 32.6463 34.3796 34.5617 34.3796H44.2742C44.675 34.3796 45 34.0546 45 33.6538V31.1395C45 30.786 44.7454 30.484 44.397 30.4241L40.1992 29.7028L36.1406 24.9239L35.2193 9.08481C35.197 8.70095 34.8793 8.4011 34.4948 8.4011H31.8136C31.4128 8.4011 31.0878 8.72608 31.0878 9.12691V18.2546H29.3443C28.9435 18.2546 28.6185 18.5796 28.6185 18.9804V19.7079H27.9009V13.9727C27.9009 12.2888 26.5309 10.9188 24.8471 10.9188H21.1948L15.9641 0.40264C15.8413 0.155957 15.5897 0 15.3142 0H4.79993C3.43705 0 2.3282 1.10885 2.3282 2.47173V11.0068C0.993627 11.3334 0.000181438 12.539 0.000181438 13.9727V22.7496C0.000181438 23.1505 0.325161 23.4754 0.725986 23.4754H6.22024V24.4956H4.94201C2.21697 24.4956 0 26.7126 0 29.4377C0 32.1627 2.21697 34.3797 4.94201 34.3797H22.959C25.6841 34.3797 27.9011 32.1627 27.9011 29.4377C27.9011 26.7126 25.6841 24.4956 22.959 24.4956H21.6808V23.4754M19.3786 10.5273L16.8577 9.8518L17.0221 9.23832C17.1259 8.8511 16.896 8.45318 16.5089 8.34939C16.1218 8.24587 15.7238 8.47541 15.62 8.86262L14.9154 11.4918C14.8116 11.879 15.0415 12.2769 15.4286 12.3807C15.4915 12.3976 15.5547 12.4055 15.6169 12.4055C15.9373 12.4055 16.2306 12.1917 16.3175 11.8675L16.4819 11.2539L19.835 12.1523L19.0464 14.7816H12.6279L11.6245 11.4361C11.5323 11.1291 11.2498 10.9188 10.9293 10.9188H7.89757V1.45161H14.8646L19.3786 10.5273ZM4.79993 1.45161H6.44597V10.919H3.77981V2.47173C3.77981 1.90923 4.23743 1.45161 4.79993 1.45161ZM26.4494 29.4376C26.4494 31.3622 24.8836 32.928 22.9589 32.928H4.94201C3.01735 32.928 1.45161 31.3622 1.45161 29.4376C1.45161 27.5129 3.01735 25.9471 4.94201 25.9471H22.959C24.8837 25.9472 26.4494 27.513 26.4494 29.4376ZM20.2292 24.4956H7.67185V23.4754H20.2292V24.4956ZM26.4492 22.0238H1.45179V13.9728C1.45179 13.0893 2.17052 12.3706 3.05401 12.3706H10.3893L11.3927 15.716C11.4849 16.0231 11.7674 16.2334 12.0879 16.2334H19.5865C19.907 16.2334 20.1895 16.0231 20.2817 15.716L21.2851 12.3706H24.8471C25.7305 12.3706 26.4492 13.0893 26.4492 13.9728V22.0238ZM27.9009 22.0238V21.1596H28.6185V22.0238H27.9009ZM30.0701 23.4771V19.7063H31.0878V23.4771H30.0701ZM43.5483 32.928H34.5617C33.4465 32.928 32.5393 32.0207 32.5393 30.9056V9.8528H33.8099L34.7055 25.2508C34.7147 25.4081 34.7749 25.5583 34.8769 25.6784L39.2633 30.8434C39.3736 30.9732 39.5259 31.0601 39.6936 31.0889L43.5483 31.7512V32.928Z" fill="#0676BC"/>
</svg>
