<svg width="27" height="27" viewBox="0 0 27 27" fill="none" xmlns="http://www.w3.org/2000/svg">
<rect width="27" height="27" rx="13.5" fill="#F76F6F"/>
<path d="M16.2857 19H11.7143C11.4112 19 11.1205 18.8829 10.9062 18.6746C10.6918 18.4662 10.5714 18.1836 10.5714 17.8889V12.8889C10.5714 12.7415 10.6316 12.6002 10.7388 12.4961C10.846 12.3919 10.9913 12.3333 11.1429 12.3333H16.8571C17.0087 12.3333 17.154 12.3919 17.2612 12.4961C17.3684 12.6002 17.4286 12.7415 17.4286 12.8889V17.8889C17.4286 18.1836 17.3082 18.4662 17.0938 18.6746C16.8795 18.8829 16.5888 19 16.2857 19ZM18 10.6667C18 10.814 17.9398 10.9553 17.8326 11.0595C17.7255 11.1637 17.5801 11.2222 17.4286 11.2222H10.5714C10.4199 11.2222 10.2745 11.1637 10.1674 11.0595C10.0602 10.9553 10 10.814 10 10.6667C10 10.5193 10.0602 10.378 10.1674 10.2738C10.2745 10.1696 10.4199 10.1111 10.5714 10.1111H12.2857V9.55556C12.2857 9.40821 12.3459 9.26691 12.4531 9.16272C12.5602 9.05853 12.7056 9 12.8571 9H15.1429C15.2944 9 15.4398 9.05853 15.5469 9.16272C15.6541 9.26691 15.7143 9.40821 15.7143 9.55556V10.1111H17.4286C17.5801 10.1111 17.7255 10.1696 17.8326 10.2738C17.9398 10.378 18 10.5193 18 10.6667Z" fill="white"/>
</svg>
