<svg width="20" height="25" viewBox="0 0 20 25" fill="none" xmlns="http://www.w3.org/2000/svg">
<path d="M13.1712 8.76777C12.8582 8.76777 12.6045 9.02147 12.6045 9.33451V20.046C12.6045 20.3588 12.8582 20.6127 13.1712 20.6127C13.4842 20.6127 13.7379 20.3588 13.7379 20.046V9.33451C13.7379 9.02147 13.4842 8.76777 13.1712 8.76777Z" fill="#0575BC"/>
<path d="M6.48363 8.76777C6.17059 8.76777 5.91689 9.02147 5.91689 9.33451V20.046C5.91689 20.3588 6.17059 20.6127 6.48363 20.6127C6.79667 20.6127 7.05037 20.3588 7.05037 20.046V9.33451C7.05037 9.02147 6.79667 8.76777 6.48363 8.76777Z" fill="#0575BC"/>
<path d="M1.60964 7.20457V21.1679C1.60964 21.9932 1.91227 22.7683 2.44094 23.3244C2.96717 23.8821 3.69951 24.1987 4.46594 24.2H15.1889C15.9555 24.1987 16.6879 23.8821 17.2139 23.3244C17.7426 22.7683 18.0452 21.9932 18.0452 21.1679V7.20457C19.0961 6.92563 19.7771 5.91036 19.6365 4.832C19.4957 3.75386 18.5772 2.94736 17.4897 2.94714H14.5881V2.23871C14.5914 1.64297 14.3558 1.07091 13.9341 0.650058C13.5124 0.229428 12.9394 -0.00479598 12.3437 7.44654e-05H7.31116C6.71542 -0.00479598 6.14248 0.229428 5.72074 0.650058C5.29901 1.07091 5.06345 1.64297 5.06677 2.23871V2.94714H2.16509C1.07766 2.94736 0.159135 3.75386 0.0183344 4.832C-0.122244 5.91036 0.558733 6.92563 1.60964 7.20457ZM15.1889 23.0665H4.46594C3.49694 23.0665 2.74313 22.2341 2.74313 21.1679V7.25438H16.9117V21.1679C16.9117 22.2341 16.1579 23.0665 15.1889 23.0665ZM6.20026 2.23871C6.1965 1.9436 6.3125 1.65957 6.52193 1.45125C6.73114 1.24292 7.01584 1.12847 7.31116 1.13356H12.3437C12.639 1.12847 12.9237 1.24292 13.1329 1.45125C13.3423 1.65935 13.4583 1.9436 13.4546 2.23871V2.94714H6.20026V2.23871ZM2.16509 4.08062H17.4897C18.0532 4.08062 18.5099 4.53734 18.5099 5.10076C18.5099 5.66418 18.0532 6.1209 17.4897 6.1209H2.16509C1.60167 6.1209 1.14496 5.66418 1.14496 5.10076C1.14496 4.53734 1.60167 4.08062 2.16509 4.08062Z" fill="#0575BC"/>
<path d="M9.82741 8.76777C9.51438 8.76777 9.26067 9.02147 9.26067 9.33451V20.046C9.26067 20.3588 9.51438 20.6127 9.82741 20.6127C10.1405 20.6127 10.3942 20.3588 10.3942 20.046V9.33451C10.3942 9.02147 10.1405 8.76777 9.82741 8.76777Z" fill="#0575BC"/>
</svg>
