<svg width="45" height="45" viewBox="0 0 45 45" fill="none" xmlns="http://www.w3.org/2000/svg">
<path d="M36.5175 27.3255L27.762 32.3783C27.3638 31.738 26.7378 31.2725 26.01 31.0755L16.0387 28.404C14.3471 27.9464 12.5436 28.1688 11.0138 29.0235L7.5 30.975V29.25C7.5 29.0511 7.42098 28.8603 7.28033 28.7197C7.13968 28.579 6.94891 28.5 6.75 28.5H0.75C0.551088 28.5 0.360322 28.579 0.21967 28.7197C0.0790176 28.8603 0 29.0511 0 29.25V44.25C0 44.4489 0.0790176 44.6397 0.21967 44.7803C0.360322 44.921 0.551088 45 0.75 45H6.75C6.94891 45 7.13968 44.921 7.28033 44.7803C7.42098 44.6397 7.5 44.4489 7.5 44.25V42.1898C8.65352 43.0422 10.0504 43.5016 11.4848 43.5H18.6562C19.832 43.4994 20.9872 43.1923 22.008 42.609L39.5205 32.523C39.9761 32.2601 40.354 31.8812 40.6156 31.4249C40.8773 30.9685 41.0133 30.451 41.01 29.925C41.0095 29.3994 40.8709 28.8831 40.6081 28.4279C40.3453 27.9727 39.9675 27.5945 39.5125 27.3313C39.0575 27.068 38.5414 26.9289 38.0158 26.9279C37.4901 26.9269 36.9735 27.064 36.5175 27.3255ZM6 43.5H1.5V30H6V43.5ZM38.7683 31.2248L21.2618 41.3085C20.468 41.7613 19.5701 41.9996 18.6562 42H11.4848C10.7951 42.0019 10.1119 41.8669 9.47473 41.6028C8.83759 41.3388 8.25918 40.9509 7.773 40.4618L7.5 40.1888V32.6888L11.742 30.3323C12.9319 29.6675 14.3346 29.4946 15.6503 29.8507L25.6215 32.5223C25.8151 32.5701 25.9972 32.6561 26.1572 32.7752C26.3171 32.8943 26.4518 33.0441 26.5531 33.2158C26.6545 33.3876 26.7207 33.5778 26.7476 33.7754C26.7746 33.973 26.762 34.174 26.7103 34.3666C26.6587 34.5592 26.5692 34.7396 26.4471 34.8973C26.3249 35.0549 26.1725 35.1866 25.9989 35.2846C25.8252 35.3827 25.6337 35.4451 25.4356 35.4683C25.2376 35.4914 25.0368 35.4748 24.8452 35.4195L18.258 33.6548C18.1629 33.6292 18.0636 33.6227 17.966 33.6356C17.8683 33.6484 17.7741 33.6804 17.6888 33.7296C17.6035 33.7788 17.5287 33.8444 17.4687 33.9225C17.4088 34.0007 17.3648 34.0899 17.3393 34.185C17.3137 34.2801 17.3072 34.3794 17.3201 34.477C17.3329 34.5747 17.3649 34.6689 17.4141 34.7542C17.4633 34.8395 17.5289 34.9143 17.607 34.9743C17.6852 35.0342 17.7744 35.0782 17.8695 35.1038C17.8695 35.1038 24.975 36.975 25.2383 36.975C25.6432 36.9795 26.0447 36.9006 26.4179 36.7432C26.791 36.5859 27.1278 36.3533 27.4071 36.0602C27.6865 35.767 27.9026 35.4194 28.0418 35.0392C28.181 34.6589 28.2405 34.254 28.2165 33.8498L37.2653 28.626C37.6082 28.4291 38.015 28.3757 38.3972 28.4772C38.7794 28.5788 39.106 28.8271 39.306 29.1682C39.439 29.3986 39.5093 29.6598 39.51 29.9258C39.5121 30.1885 39.4445 30.4471 39.3142 30.6752C39.1839 30.9034 38.9956 31.093 38.7683 31.2248Z" fill="#0575BC"/>
<path d="M27 30C28.78 30 30.5201 29.4722 32.0001 28.4832C33.4802 27.4943 34.6337 26.0887 35.3149 24.4442C35.9961 22.7996 36.1743 20.99 35.8271 19.2442C35.4798 17.4984 34.6226 15.8947 33.364 14.636C32.1053 13.3774 30.5016 12.5202 28.7558 12.1729C27.01 11.8257 25.2004 12.0039 23.5558 12.6851C21.9113 13.3663 20.5057 14.5198 19.5168 15.9999C18.5278 17.4799 18 19.22 18 21C18.0026 23.3862 18.9516 25.6738 20.6389 27.3611C22.3262 29.0484 24.6138 29.9974 27 30ZM27 13.5C28.4834 13.5 29.9334 13.9399 31.1668 14.764C32.4001 15.5881 33.3614 16.7594 33.9291 18.1299C34.4968 19.5003 34.6453 21.0083 34.3559 22.4632C34.0665 23.918 33.3522 25.2544 32.3033 26.3033C31.2544 27.3522 29.918 28.0665 28.4632 28.3559C27.0083 28.6453 25.5003 28.4968 24.1299 27.9291C22.7594 27.3614 21.5881 26.4001 20.764 25.1668C19.9399 23.9334 19.5 22.4834 19.5 21C19.5022 19.0115 20.2931 17.1052 21.6991 15.6991C23.1052 14.2931 25.0115 13.5022 27 13.5Z" fill="#0575BC"/>
<path d="M11.25 9.75C11.0511 9.75 10.8603 9.67098 10.7197 9.53033C10.579 9.38968 10.5 9.19891 10.5 9C10.5 8.80109 10.421 8.61032 10.2803 8.46967C10.1397 8.32902 9.94891 8.25 9.75 8.25C9.55109 8.25 9.36032 8.32902 9.21967 8.46967C9.07902 8.61032 9 8.80109 9 9C9.00192 9.4637 9.14706 9.91547 9.41557 10.2935C9.68407 10.6716 10.0628 10.9574 10.5 11.112V12C10.5 12.1989 10.579 12.3897 10.7197 12.5303C10.8603 12.671 11.0511 12.75 11.25 12.75C11.4489 12.75 11.6397 12.671 11.7803 12.5303C11.921 12.3897 12 12.1989 12 12V11.112C12.5 10.9359 12.9216 10.5885 13.19 10.1314C13.4584 9.67421 13.5564 9.13682 13.4665 8.61437C13.3767 8.09191 13.1049 7.61811 12.6992 7.27688C12.2935 6.93564 11.7801 6.749 11.25 6.75C11.1017 6.75 10.9567 6.70602 10.8333 6.6236C10.71 6.54119 10.6139 6.42406 10.5571 6.28701C10.5003 6.14997 10.4855 5.99917 10.5144 5.85369C10.5434 5.7082 10.6148 5.57456 10.7197 5.46967C10.8246 5.36478 10.9582 5.29335 11.1037 5.26441C11.2492 5.23548 11.4 5.25033 11.537 5.30709C11.6741 5.36386 11.7912 5.45999 11.8736 5.58332C11.956 5.70666 12 5.85167 12 6C12 6.19892 12.079 6.38968 12.2197 6.53033C12.3603 6.67098 12.5511 6.75 12.75 6.75C12.9489 6.75 13.1397 6.67098 13.2803 6.53033C13.421 6.38968 13.5 6.19892 13.5 6C13.4981 5.53631 13.3529 5.08453 13.0844 4.70648C12.8159 4.32843 12.4372 4.04257 12 3.888V3C12 2.80109 11.921 2.61033 11.7803 2.46967C11.6397 2.32902 11.4489 2.25 11.25 2.25C11.0511 2.25 10.8603 2.32902 10.7197 2.46967C10.579 2.61033 10.5 2.80109 10.5 3V3.888C9.99999 4.06412 9.57844 4.41151 9.31002 4.86865C9.0416 5.32579 8.94363 5.86318 9.03346 6.38564C9.12329 6.90809 9.39512 7.38189 9.80082 7.72313C10.2065 8.06436 10.7199 8.25101 11.25 8.25C11.4489 8.25 11.6397 8.32902 11.7803 8.46967C11.921 8.61032 12 8.80109 12 9C12 9.19891 11.921 9.38968 11.7803 9.53033C11.6397 9.67098 11.4489 9.75 11.25 9.75Z" fill="#0575BC"/>
<path d="M11.25 15C12.7334 15 14.1834 14.5601 15.4168 13.736C16.6501 12.9119 17.6114 11.7406 18.1791 10.3701C18.7468 8.99968 18.8953 7.49168 18.6059 6.03683C18.3165 4.58197 17.6022 3.2456 16.5533 2.1967C15.5044 1.14781 14.168 0.433503 12.7132 0.144114C11.2583 -0.145275 9.75032 0.00324965 8.37987 0.570907C7.00943 1.13856 5.83809 2.09986 5.01398 3.33323C4.18987 4.5666 3.75 6.01664 3.75 7.5C3.75218 9.48846 4.54306 11.3948 5.94911 12.8009C7.35516 14.2069 9.26155 14.9978 11.25 15ZM11.25 1.5C12.4367 1.5 13.5967 1.8519 14.5834 2.51119C15.5701 3.17047 16.3392 4.10755 16.7933 5.2039C17.2474 6.30026 17.3662 7.50666 17.1347 8.67054C16.9032 9.83443 16.3318 10.9035 15.4926 11.7426C14.6535 12.5818 13.5844 13.1532 12.4205 13.3847C11.2567 13.6162 10.0503 13.4974 8.9539 13.0433C7.85754 12.5892 6.92047 11.8201 6.26118 10.8334C5.60189 9.84673 5.25 8.68669 5.25 7.5C5.25179 5.90925 5.8845 4.38417 7.00933 3.25934C8.13416 2.1345 9.65925 1.50179 11.25 1.5Z" fill="#0575BC"/>
<path d="M27 24.75C26.6022 24.75 26.2206 24.592 25.9393 24.3107C25.658 24.0294 25.5 23.6478 25.5 23.25C25.5 23.0511 25.421 22.8603 25.2803 22.7197C25.1397 22.579 24.9489 22.5 24.75 22.5C24.5511 22.5 24.3603 22.579 24.2197 22.7197C24.079 22.8603 24 23.0511 24 23.25C24.0025 23.9132 24.2246 24.5568 24.6317 25.0803C25.0388 25.6038 25.6079 25.9777 26.25 26.1435V27C26.25 27.1989 26.329 27.3897 26.4697 27.5303C26.6103 27.671 26.8011 27.75 27 27.75C27.1989 27.75 27.3897 27.671 27.5303 27.5303C27.671 27.3897 27.75 27.1989 27.75 27V26.1435C28.4562 25.9617 29.0718 25.5285 29.4813 24.925C29.8907 24.3216 30.0658 23.5894 29.9738 22.866C29.8817 22.1426 29.5288 21.4777 28.9813 20.996C28.4337 20.5144 27.7292 20.2491 27 20.25C26.7033 20.25 26.4133 20.162 26.1666 19.9972C25.92 19.8324 25.7277 19.5981 25.6142 19.324C25.5007 19.0499 25.4709 18.7483 25.5288 18.4574C25.5867 18.1664 25.7296 17.8991 25.9393 17.6893C26.1491 17.4796 26.4164 17.3367 26.7074 17.2788C26.9983 17.2209 27.2999 17.2507 27.574 17.3642C27.8481 17.4777 28.0824 17.67 28.2472 17.9166C28.412 18.1633 28.5 18.4533 28.5 18.75C28.5 18.9489 28.579 19.1397 28.7197 19.2803C28.8603 19.421 29.0511 19.5 29.25 19.5C29.4489 19.5 29.6397 19.421 29.7803 19.2803C29.921 19.1397 30 18.9489 30 18.75C29.9975 18.0868 29.7754 17.4432 29.3683 16.9197C28.9612 16.3962 28.3921 16.0223 27.75 15.8565V15C27.75 14.8011 27.671 14.6103 27.5303 14.4697C27.3897 14.329 27.1989 14.25 27 14.25C26.8011 14.25 26.6103 14.329 26.4697 14.4697C26.329 14.6103 26.25 14.8011 26.25 15V15.8565C25.5438 16.0383 24.9282 16.4715 24.5187 17.075C24.1093 17.6784 23.9342 18.4106 24.0262 19.134C24.1183 19.8574 24.4712 20.5223 25.0187 21.004C25.5663 21.4856 26.2708 21.7509 27 21.75C27.3978 21.75 27.7794 21.908 28.0607 22.1893C28.342 22.4706 28.5 22.8522 28.5 23.25C28.5 23.6478 28.342 24.0294 28.0607 24.3107C27.7794 24.592 27.3978 24.75 27 24.75Z" fill="#0575BC"/>
<path d="M38.25 3.30512e-06C37.0633 3.30512e-06 35.9033 0.351897 34.9166 1.01119C33.9299 1.67047 33.1609 2.60755 32.7067 3.7039C32.2526 4.80026 32.1338 6.00666 32.3653 7.17055C32.5968 8.33443 33.1682 9.40353 34.0074 10.2426C34.8465 11.0818 35.9156 11.6532 37.0795 11.8847C38.2433 12.1162 39.4497 11.9974 40.5461 11.5433C41.6425 11.0892 42.5795 10.3201 43.2388 9.33342C43.8981 8.34673 44.25 7.18669 44.25 6C44.2482 4.40925 43.6155 2.88417 42.4907 1.75934C41.3658 0.634504 39.8408 0.00178989 38.25 3.30512e-06ZM38.25 8.25C38.0511 8.25 37.8603 8.17099 37.7197 8.03033C37.579 7.88968 37.5 7.69892 37.5 7.5C37.5 7.30109 37.421 7.11033 37.2803 6.96967C37.1397 6.82902 36.9489 6.75 36.75 6.75C36.5511 6.75 36.3603 6.82902 36.2197 6.96967C36.079 7.11033 36 7.30109 36 7.5C36.0019 7.9637 36.1471 8.41548 36.4156 8.79353C36.6841 9.17158 37.0628 9.45744 37.5 9.612V10.4325C36.4519 10.2562 35.5001 9.71424 34.8137 8.90277C34.1273 8.0913 33.7507 7.06284 33.7507 6C33.7507 4.93716 34.1273 3.90871 34.8137 3.09724C35.5001 2.28576 36.4519 1.74378 37.5 1.5675V2.388C37 2.56412 36.5784 2.91151 36.31 3.36865C36.0416 3.82579 35.9436 4.36318 36.0335 4.88564C36.1233 5.40809 36.3951 5.8819 36.8008 6.22313C37.2065 6.56436 37.7199 6.75101 38.25 6.75C38.4489 6.75 38.6397 6.82902 38.7803 6.96967C38.921 7.11033 39 7.30109 39 7.5C39 7.69892 38.921 7.88968 38.7803 8.03033C38.6397 8.17099 38.4489 8.25 38.25 8.25ZM39 10.4325V9.612C39.5 9.43589 39.9216 9.08849 40.19 8.63135C40.4584 8.17421 40.5564 7.63682 40.4665 7.11437C40.3767 6.59192 40.1049 6.11811 39.6992 5.77688C39.2935 5.43564 38.7801 5.249 38.25 5.25C38.1017 5.25 37.9567 5.20602 37.8333 5.12361C37.71 5.04119 37.6139 4.92406 37.5571 4.78702C37.5003 4.64997 37.4855 4.49917 37.5144 4.35369C37.5434 4.2082 37.6148 4.07456 37.7197 3.96967C37.8246 3.86478 37.9582 3.79335 38.1037 3.76441C38.2492 3.73548 38.4 3.75033 38.537 3.80709C38.6741 3.86386 38.7912 3.95999 38.8736 4.08333C38.956 4.20666 39 4.35167 39 4.5C39 4.69892 39.079 4.88968 39.2197 5.03033C39.3603 5.17099 39.5511 5.25 39.75 5.25C39.9489 5.25 40.1397 5.17099 40.2803 5.03033C40.421 4.88968 40.5 4.69892 40.5 4.5C40.4981 4.03631 40.3529 3.58453 40.0844 3.20648C39.8159 2.82843 39.4372 2.54257 39 2.388V1.5675C40.0481 1.74378 40.9999 2.28576 41.6863 3.09724C42.3727 3.90871 42.7493 4.93716 42.7493 6C42.7493 7.06284 42.3727 8.0913 41.6863 8.90277C40.9999 9.71424 40.0481 10.2562 39 10.4325Z" fill="#0575BC"/>
</svg>
