<svg width="27" height="27" viewBox="0 0 27 27" fill="none" xmlns="http://www.w3.org/2000/svg">
<rect width="27" height="27" rx="13.5" fill="#8FC1EB"/>
<path d="M18.1512 11.2509C18.465 10.8783 18.4168 10.3225 18.0443 10.0087L17.0911 9.20718C16.7186 8.8934 16.1627 8.94158 15.8489 9.31413L15.4717 9.76189L17.7739 11.6987L18.1512 11.2509Z" fill="white"/>
<path d="M17.481 12.0393L15.1788 10.1025L14.3984 11.031L16.7007 12.9677L17.481 12.0393Z" fill="white"/>
<path d="M9.26888 19.3115C9.26301 19.3914 9.33705 19.4537 9.41461 19.4337L9.99634 19.2868L9.31237 18.7109L9.26888 19.3115Z" fill="white"/>
<path d="M12.0496 18.4871L16.3709 13.3538L14.0686 11.417L9.74736 16.5492C9.66744 16.6444 9.61926 16.7619 9.61103 16.8853L9.50879 18.305L10.3644 19.0254L11.7429 18.6787C11.8628 18.6481 11.9697 18.5811 12.0496 18.4871Z" fill="white"/>
</svg>
