<svg width="45" height="45" viewBox="0 0 45 45" fill="none" xmlns="http://www.w3.org/2000/svg">
<path d="M43.5936 40.9106V40.0781C43.5918 39.6434 43.4557 39.2199 43.204 38.8655C42.9523 38.511 42.5972 38.243 42.1873 38.0981V20.9645C42.5972 20.8196 42.9523 20.5516 43.204 20.1971C43.4557 19.8427 43.5918 19.4192 43.5936 18.9845V15.3395C44.0442 15.182 44.4277 14.8755 44.6806 14.4707C44.9335 14.0658 45.0407 13.5868 44.9846 13.1128C44.9284 12.6388 44.7123 12.1981 44.3718 11.8635C44.0313 11.5289 43.5869 11.3205 43.1119 11.2726L22.8395 0.0880578C22.7357 0.0303075 22.6188 0 22.4999 0C22.3811 0 22.2642 0.0303075 22.1603 0.0880578L1.88788 11.2726C1.41294 11.3205 0.968521 11.5289 0.628047 11.8635C0.287574 12.1981 0.0714127 12.6388 0.0152723 13.1128C-0.040868 13.5868 0.0663707 14.0658 0.319274 14.4707C0.572177 14.8755 0.955614 15.182 1.40624 15.3395V18.9845C1.40805 19.4192 1.54412 19.8427 1.79584 20.1971C2.04756 20.5516 2.40263 20.8196 2.81249 20.9645V38.0981C2.40263 38.243 2.04756 38.511 1.79584 38.8655C1.54412 39.2199 1.40805 39.6434 1.40624 40.0781V40.9106C0.996389 41.0555 0.641312 41.3235 0.389591 41.678C0.137871 42.0324 0.00180208 42.4559 0 42.8906V44.2969C0 44.4834 0.0740788 44.6622 0.20594 44.7941C0.337801 44.9259 0.516643 45 0.703122 45H44.2967C44.4832 45 44.662 44.9259 44.7939 44.7941C44.9258 44.6622 44.9998 44.4834 44.9998 44.2969V42.8906C44.998 42.4559 44.862 42.0324 44.6102 41.678C44.3585 41.3235 44.0034 41.0555 43.5936 40.9106ZM35.1561 40.7813V40.0781C35.1543 39.6434 35.0182 39.2199 34.7665 38.8655C34.5148 38.511 34.1597 38.243 33.7499 38.0981V20.9645C34.1597 20.8196 34.5148 20.5516 34.7665 20.1971C35.0182 19.8427 35.1543 19.4192 35.1561 18.9845V18.2813H36.5624V18.9845C36.5642 19.4192 36.7002 19.8427 36.952 20.1971C37.2037 20.5516 37.5588 20.8196 37.9686 20.9645V23.2032C37.9686 23.3897 38.0427 23.5685 38.1745 23.7004C38.3064 23.8322 38.4853 23.9063 38.6717 23.9063C38.8582 23.9063 39.0371 23.8322 39.1689 23.7004C39.3008 23.5685 39.3749 23.3897 39.3749 23.2032V21.0938H40.7811V37.9688H39.3749V26.0157C39.3749 25.8292 39.3008 25.6504 39.1689 25.5185C39.0371 25.3867 38.8582 25.3126 38.6717 25.3126C38.4853 25.3126 38.3064 25.3867 38.1745 25.5185C38.0427 25.6504 37.9686 25.8292 37.9686 26.0157V38.0981C37.5588 38.243 37.2037 38.511 36.952 38.8655C36.7002 39.2199 36.5642 39.6434 36.5624 40.0781V40.7813H35.1561ZM27.4218 40.7813V26.5894C27.8905 26.4243 28.2857 26.0987 28.5374 25.6701C28.789 25.2415 28.8809 24.7377 28.7966 24.2479C28.7124 23.7581 28.4576 23.3139 28.0773 22.994C27.6969 22.6741 27.2156 22.4991 26.7187 22.5001H18.2812C17.7842 22.4991 17.3029 22.6741 16.9226 22.994C16.5422 23.3139 16.2874 23.7581 16.2032 24.2479C16.119 24.7377 16.2108 25.2415 16.4625 25.6701C16.7141 26.0987 17.1093 26.4243 17.5781 26.5894V40.7813H16.8749V40.0781C16.8731 39.6434 16.7371 39.2199 16.4853 38.8655C16.2336 38.511 15.8785 38.243 15.4687 38.0981V20.9645C15.8785 20.8196 16.2336 20.5516 16.4853 20.1971C16.7371 19.8427 16.8731 19.4192 16.8749 18.9845V18.2813H28.1249V18.9845C28.1267 19.4192 28.2628 19.8427 28.5145 20.1971C28.7662 20.5516 29.1213 20.8196 29.5311 20.9645V38.0981C29.1213 38.243 28.7662 38.511 28.5145 38.8655C28.2628 39.2199 28.1267 39.6434 28.1249 40.0781V40.7813H27.4218ZM18.9843 26.7188H22.4999C22.6864 26.7188 22.8652 26.6447 22.9971 26.5129C23.129 26.381 23.203 26.2022 23.203 26.0157C23.203 25.8292 23.129 25.6504 22.9971 25.5185C22.8652 25.3867 22.6864 25.3126 22.4999 25.3126H18.2812C18.0947 25.3126 17.9159 25.2385 17.784 25.1066C17.6521 24.9748 17.5781 24.7959 17.5781 24.6094C17.5781 24.423 17.6521 24.2441 17.784 24.1123C17.9159 23.9804 18.0947 23.9063 18.2812 23.9063H26.7187C26.9051 23.9063 27.084 23.9804 27.2158 24.1123C27.3477 24.2441 27.4218 24.423 27.4218 24.6094C27.4218 24.7959 27.3477 24.9748 27.2158 25.1066C27.084 25.2385 26.9051 25.3126 26.7187 25.3126H25.3124C25.1259 25.3126 24.9471 25.3867 24.8152 25.5185C24.6834 25.6504 24.6093 25.8292 24.6093 26.0157C24.6093 26.2022 24.6834 26.381 24.8152 26.5129C24.9471 26.6447 25.1259 26.7188 25.3124 26.7188H26.0155V40.7813H18.9843V26.7188ZM8.43747 40.7813V40.0781C8.43567 39.6434 8.2996 39.2199 8.04788 38.8655C7.79616 38.511 7.44108 38.243 7.03122 38.0981V35.8594C7.03122 35.6729 6.95714 35.4941 6.82528 35.3622C6.69342 35.2304 6.51458 35.1563 6.3281 35.1563C6.14162 35.1563 5.96278 35.2304 5.83092 35.3622C5.69906 35.4941 5.62498 35.6729 5.62498 35.8594V37.9688H4.21873V21.0938H5.62498V33.0469C5.62498 33.2334 5.69906 33.4122 5.83092 33.5441C5.96278 33.676 6.14162 33.75 6.3281 33.75C6.51458 33.75 6.69342 33.676 6.82528 33.5441C6.95714 33.4122 7.03122 33.2334 7.03122 33.0469V20.9645C7.44108 20.8196 7.79616 20.5516 8.04788 20.1971C8.2996 19.8427 8.43567 19.4192 8.43747 18.9845V18.2813H9.84371V18.9845C9.84552 19.4192 9.98158 19.8427 10.2333 20.1971C10.485 20.5516 10.8401 20.8196 11.25 20.9645V38.0981C10.8401 38.243 10.485 38.511 10.2333 38.8655C9.98158 39.2199 9.84552 39.6434 9.84371 40.0781V40.7813H8.43747ZM2.81249 18.9845V18.2813H7.03122V18.9845C7.03122 19.171 6.95714 19.3498 6.82528 19.4817C6.69342 19.6135 6.51458 19.6876 6.3281 19.6876H3.51561C3.32913 19.6876 3.15029 19.6135 3.01843 19.4817C2.88657 19.3498 2.81249 19.171 2.81249 18.9845ZM12.6562 21.0938H14.0624V37.9688H12.6562V21.0938ZM14.7656 19.6876H11.9531C11.7666 19.6876 11.5878 19.6135 11.4559 19.4817C11.324 19.3498 11.25 19.171 11.25 18.9845V18.2813H15.4687V18.9845C15.4687 19.171 15.3946 19.3498 15.2628 19.4817C15.1309 19.6135 14.952 19.6876 14.7656 19.6876ZM11.25 40.0781C11.25 39.8917 11.324 39.7128 11.4559 39.581C11.5878 39.4491 11.7666 39.375 11.9531 39.375H14.7656C14.952 39.375 15.1309 39.4491 15.2628 39.581C15.3946 39.7128 15.4687 39.8917 15.4687 40.0781V40.7813H11.25V40.0781ZM30.9374 21.0938H32.3436V37.9688H30.9374V21.0938ZM33.0468 19.6876H30.2343C30.0478 19.6876 29.8689 19.6135 29.7371 19.4817C29.6052 19.3498 29.5311 19.171 29.5311 18.9845V18.2813H33.7499V18.9845C33.7499 19.171 33.6758 19.3498 33.5439 19.4817C33.4121 19.6135 33.2332 19.6876 33.0468 19.6876ZM29.5311 40.0781C29.5311 39.8917 29.6052 39.7128 29.7371 39.581C29.8689 39.4491 30.0478 39.375 30.2343 39.375H33.0468C33.2332 39.375 33.4121 39.4491 33.5439 39.581C33.6758 39.7128 33.7499 39.8917 33.7499 40.0781V40.7813H29.5311V40.0781ZM37.9686 40.0781C37.9686 39.8917 38.0427 39.7128 38.1745 39.581C38.3064 39.4491 38.4853 39.375 38.6717 39.375H41.4842C41.6707 39.375 41.8495 39.4491 41.9814 39.581C42.1133 39.7128 42.1873 39.8917 42.1873 40.0781V40.7813H37.9686V40.0781ZM42.1873 18.9845C42.1873 19.171 42.1133 19.3498 41.9814 19.4817C41.8495 19.6135 41.6707 19.6876 41.4842 19.6876H38.6717C38.4853 19.6876 38.3064 19.6135 38.1745 19.4817C38.0427 19.3498 37.9686 19.171 37.9686 18.9845V18.2813H42.1873V18.9845ZM22.4999 1.50626L40.1609 11.2501H4.83889L22.4999 1.50626ZM2.10937 12.6564H42.8905C43.0769 12.6564 43.2558 12.7304 43.3876 12.8623C43.5195 12.9942 43.5936 13.173 43.5936 13.3595C43.5936 13.546 43.5195 13.7248 43.3876 13.8567C43.2558 13.9885 43.0769 14.0626 42.8905 14.0626H37.2655C37.079 14.0626 36.9002 14.1367 36.7683 14.2686C36.6364 14.4004 36.5624 14.5793 36.5624 14.7657C36.5624 14.9522 36.6364 15.1311 36.7683 15.2629C36.9002 15.3948 37.079 15.4689 37.2655 15.4689H42.1873V16.8751H2.81249V15.4689H34.453C34.6395 15.4689 34.8183 15.3948 34.9502 15.2629C35.082 15.1311 35.1561 14.9522 35.1561 14.7657C35.1561 14.5793 35.082 14.4004 34.9502 14.2686C34.8183 14.1367 34.6395 14.0626 34.453 14.0626H2.10937C1.92289 14.0626 1.74405 13.9885 1.61218 13.8567C1.48032 13.7248 1.40624 13.546 1.40624 13.3595C1.40624 13.173 1.48032 12.9942 1.61218 12.8623C1.74405 12.7304 1.92289 12.6564 2.10937 12.6564ZM2.81249 40.0781C2.81249 39.8917 2.88657 39.7128 3.01843 39.581C3.15029 39.4491 3.32913 39.375 3.51561 39.375H6.3281C6.51458 39.375 6.69342 39.4491 6.82528 39.581C6.95714 39.7128 7.03122 39.8917 7.03122 40.0781V40.7813H2.81249V40.0781ZM43.5936 43.5938H1.40624V42.8906C1.40624 42.7042 1.48032 42.5253 1.61218 42.3934C1.74405 42.2616 1.92289 42.1875 2.10937 42.1875H42.8905C43.0769 42.1875 43.2558 42.2616 43.3876 42.3934C43.5195 42.5253 43.5936 42.7042 43.5936 42.8906V43.5938Z" fill="#0676BC"/>
<path d="M12.4804 9.46701C12.5233 9.54883 12.5818 9.6214 12.6527 9.6806C12.7236 9.73979 12.8054 9.78444 12.8936 9.812C12.9817 9.83955 13.0744 9.84947 13.1664 9.84119C13.2584 9.8329 13.3478 9.80658 13.4296 9.76372L22.4999 5.01273L31.5702 9.76372C31.7354 9.85025 31.9282 9.8676 32.1063 9.81196C32.2843 9.75631 32.4329 9.63223 32.5194 9.46701C32.6059 9.30179 32.6233 9.10896 32.5676 8.93095C32.512 8.75294 32.3879 8.60432 32.2227 8.51779L22.8262 3.59594C22.7255 3.54321 22.6136 3.51566 22.4999 3.51566C22.3863 3.51566 22.2743 3.54321 22.1737 3.59594L12.7771 8.51779C12.6953 8.56063 12.6227 8.61916 12.5635 8.69005C12.5044 8.76093 12.4597 8.84279 12.4322 8.93093C12.4046 9.01908 12.3947 9.11179 12.403 9.20377C12.4112 9.29575 12.4376 9.3852 12.4804 9.46701Z" fill="#0676BC"/>
</svg>
