<svg width="38" height="46" viewBox="0 0 38 46" fill="none" xmlns="http://www.w3.org/2000/svg">
<path d="M3.82302 45H18.1966V7.43673H3.82302V45ZM3.82302 45H0M5.67086 2.74639V7.43673M8.57927 0V7.43673M8.87269 9.81431H16.2985M35.6209 45H31.7979M31.7979 45H19.9805M31.7979 45L31.7979 20.1906L19.9805 14.4912M31.0606 13.7055C30.1249 14.6411 28.8809 15.1566 27.5576 15.1566C26.7924 15.1566 26.0538 14.9843 25.386 14.6581M33.9282 3.83296L22.4958 15.2654M29.2884 4.49958V8.47171M31.7186 11.5026H26.2575M34.1032 7.08621H30.674M25.042 6.54389V12.718M29.488 17.096C30.6349 16.7759 31.718 16.1668 32.62 15.2649C35.4159 12.469 36.9759 0.784224 36.9759 0.784224C36.9759 0.784224 25.2911 2.34428 22.4953 5.14017C20.3748 7.26057 19.8642 10.3798 20.9602 12.983M26.2518 42.3847H28.6146V22.3378H26.2518V42.3847ZM21.3799 42.3847H23.7426V22.3378H21.3799V42.3847ZM6.36022 15.205H15.6593V12.403H6.36022V15.205ZM6.36022 20.9856H15.6593V18.1835H6.36022V20.9856ZM6.36022 26.7662H15.6593V23.9641H6.36022V26.7662ZM6.36022 32.5468H15.6593V29.7447H6.36022V32.5468ZM6.36022 38.3273H15.6593V35.5252H6.36022V38.3273Z" stroke="#0676BC" stroke-miterlimit="10"/>
</svg>
