<svg width="47" height="47" viewBox="0 0 47 47" fill="none" xmlns="http://www.w3.org/2000/svg">
<path d="M46 43.4928V46H27.305M27.305 46V20.1236H46M27.305 46L27.305 28.4085L7.84399 32.1442V34.6935L1 35.9415V45.9999L27.305 46ZM46 20.1236V40.3821M46 20.1236L39.2364 20.1237L40.7869 15.2138H46L46 20.1236ZM9.34105 16.1892H10.4243L10.7694 21.3328M10.7694 21.3328L11.054 25.5622M10.7694 21.3328L4.91754 21.3327M11.054 25.5622L11.4496 31.4521M11.054 25.5622L4.63395 25.5623M3.97326 35.3993L4.63395 25.5623M4.63395 25.5623L4.91754 21.3327M4.91754 21.3327L5.2626 16.1892H6.05521M16.4521 30.4918L17.0133 22.1319M17.0133 22.1319L17.2826 18.1154M17.0133 22.1319H23.3546M17.2826 18.1154L17.6031 13.3429H22.7648L23.0853 18.1154M17.2826 18.1154H23.0853M23.0853 18.1154L23.3546 22.1319M23.3546 22.1319L23.6005 25.7942M5.07441 39.5365H23.9737M39.2364 45.9999H34.0687V39.8385H39.2364V45.9999ZM42.2671 26.4766H31.0378V23.9151H42.2671V26.4766ZM35.2917 31.7379H31.0379V29.1765H35.2917V31.7379ZM42.2671 31.7379H38.0133V29.1765H42.2671V31.7379ZM35.2917 36.9993H31.0379V34.4378H35.2917V36.9993ZM42.2671 36.9993H38.0133V34.4378H42.2671V36.9993ZM28.3423 3.04914C28.3423 3.61576 28.1129 4.12802 27.7423 4.49795C27.3726 4.86887 26.8606 5.09837 26.2944 5.09837H24.2578C24.2229 5.60555 24.0018 6.06255 23.6638 6.40058C23.2932 6.77151 22.7812 7.001 22.216 7.001H22.1627C21.7767 7.001 21.4644 7.31349 21.4644 7.69981V8.9724C21.4644 9.67937 20.891 10.2531 20.1845 10.2531C19.8302 10.2531 19.5108 10.1097 19.2793 9.87815C19.0479 9.64648 18.9046 9.32584 18.9046 8.9724V7.69981C18.9046 7.31349 18.5913 7.001 18.2052 7.001C17.6411 7.001 17.1188 6.77767 16.7369 6.41399C16.355 6.04914 16.1123 5.54404 16.1052 4.9785C16.098 4.40264 16.3284 3.88014 16.7052 3.50305C17.0758 3.13213 17.5878 2.90264 18.153 2.90264H20.1907C20.2254 2.39545 20.4466 1.93845 20.7845 1.60042C21.1552 1.22949 21.6672 1 22.2324 1H26.2944C27.4258 1 28.3423 1.91807 28.3423 3.04914ZM11.9233 8.04161C11.9233 8.60715 11.694 9.11941 11.3233 9.49033C10.9526 9.86126 10.4407 10.0908 9.87544 10.0908H9.8222C9.43621 10.0908 9.12393 10.4032 9.12393 10.7896V12.0621C9.12393 12.7691 8.55051 13.3429 7.84401 13.3429C7.49071 13.3429 7.17018 13.1995 6.93884 12.9678C6.70741 12.7362 6.56408 12.4156 6.56408 12.0621V10.7896C6.56408 10.4032 6.25171 10.0908 5.86572 10.0908C5.30046 10.0908 4.77939 9.86742 4.39738 9.50374C4.01447 9.13889 3.77182 8.63379 3.76458 8.06825V8.03228C2.6403 7.93498 1.75768 6.98937 1.75768 5.83873C1.75768 4.62249 2.7437 3.63575 3.95915 3.63575C5.17452 3.63575 6.16062 4.62249 6.16062 5.83873C6.16062 5.88992 6.15863 5.94111 6.15447 5.99239H9.87544C11.006 5.99239 11.9233 6.90937 11.9233 8.04161ZM14.28 36.5784H11.9233V34.2203H14.28V36.5784ZM19.1268 36.5784H16.7703V34.2203H19.1268V36.5784ZM23.9737 36.5784H21.617V34.2203H23.9737V36.5784Z" stroke="#0676BC" stroke-width="1.2" stroke-miterlimit="10" stroke-linecap="round" stroke-linejoin="round"/>
</svg>
