<svg width="45" height="39" viewBox="0 0 45 39" fill="none" xmlns="http://www.w3.org/2000/svg">
<path d="M24.75 38.6364H9.75C9.55109 38.6364 9.36032 38.5581 9.21967 38.4187C9.07902 38.2794 9 38.0904 9 37.8934V12.6311C9 12.4341 9.07902 12.2451 9.21967 12.1057C9.36032 11.9664 9.55109 11.8881 9.75 11.8881H24.75C24.9489 11.8881 25.1397 11.9664 25.2803 12.1057C25.421 12.2451 25.5 12.4341 25.5 12.6311V37.8934C25.5 38.0904 25.421 38.2794 25.2803 38.4187C25.1397 38.5581 24.9489 38.6364 24.75 38.6364ZM10.5 37.1504H24V13.3741H10.5V37.1504Z" fill="#0575BC"/>
<path d="M24.75 13.3741H9.75C9.15326 13.3741 8.58097 13.1393 8.15901 12.7213C7.73705 12.3032 7.5 11.7363 7.5 11.1451C7.5 10.5539 7.73705 9.98697 8.15901 9.56895C8.58097 9.15093 9.15326 8.91608 9.75 8.91608H24.75C25.3467 8.91608 25.919 9.15093 26.341 9.56895C26.7629 9.98697 27 10.5539 27 11.1451C27 11.7363 26.7629 12.3032 26.341 12.7213C25.919 13.1393 25.3467 13.3741 24.75 13.3741ZM9.75 10.4021C9.55109 10.4021 9.36032 10.4804 9.21967 10.6197C9.07902 10.7591 9 10.948 9 11.1451C9 11.3422 9.07902 11.5312 9.21967 11.6705C9.36032 11.8098 9.55109 11.8881 9.75 11.8881H24.75C24.9489 11.8881 25.1397 11.8098 25.2803 11.6705C25.421 11.5312 25.5 11.3422 25.5 11.1451C25.5 10.948 25.421 10.7591 25.2803 10.6197C25.1397 10.4804 24.9489 10.4021 24.75 10.4021H9.75Z" fill="#0575BC"/>
<path d="M20.25 38.6364H14.25C14.0511 38.6364 13.8603 38.5581 13.7197 38.4187C13.579 38.2794 13.5 38.0904 13.5 37.8934V30.4633C13.5 30.2662 13.579 30.0772 13.7197 29.9379C13.8603 29.7986 14.0511 29.7203 14.25 29.7203H20.25C20.4489 29.7203 20.6397 29.7986 20.7803 29.9379C20.921 30.0772 21 30.2662 21 30.4633V37.8934C21 38.0904 20.921 38.2794 20.7803 38.4187C20.6397 38.5581 20.4489 38.6364 20.25 38.6364ZM15 37.1504H19.5V31.2063H15V37.1504Z" fill="#0575BC"/>
<path d="M14.25 16.3462H12.75C12.5511 16.3462 12.3603 16.2679 12.2197 16.1285C12.079 15.9892 12 15.8002 12 15.6031C12 15.4061 12.079 15.2171 12.2197 15.0778C12.3603 14.9384 12.5511 14.8601 12.75 14.8601H14.25C14.4489 14.8601 14.6397 14.9384 14.7803 15.0778C14.921 15.2171 15 15.4061 15 15.6031C15 15.8002 14.921 15.9892 14.7803 16.1285C14.6397 16.2679 14.4489 16.3462 14.25 16.3462Z" fill="#0575BC"/>
<path d="M18 16.3462H16.5C16.3011 16.3462 16.1103 16.2679 15.9697 16.1285C15.829 15.9892 15.75 15.8002 15.75 15.6031C15.75 15.4061 15.829 15.2171 15.9697 15.0778C16.1103 14.9384 16.3011 14.8601 16.5 14.8601H18C18.1989 14.8601 18.3897 14.9384 18.5303 15.0778C18.671 15.2171 18.75 15.4061 18.75 15.6031C18.75 15.8002 18.671 15.9892 18.5303 16.1285C18.3897 16.2679 18.1989 16.3462 18 16.3462Z" fill="#0575BC"/>
<path d="M21.75 16.3462H20.25C20.0511 16.3462 19.8603 16.2679 19.7197 16.1285C19.579 15.9892 19.5 15.8002 19.5 15.6031C19.5 15.4061 19.579 15.2171 19.7197 15.0778C19.8603 14.9384 20.0511 14.8601 20.25 14.8601H21.75C21.9489 14.8601 22.1397 14.9384 22.2803 15.0778C22.421 15.2171 22.5 15.4061 22.5 15.6031C22.5 15.8002 22.421 15.9892 22.2803 16.1285C22.1397 16.2679 21.9489 16.3462 21.75 16.3462Z" fill="#0575BC"/>
<path d="M14.25 19.3182H12.75C12.5511 19.3182 12.3603 19.2399 12.2197 19.1006C12.079 18.9612 12 18.7722 12 18.5752C12 18.3781 12.079 18.1891 12.2197 18.0498C12.3603 17.9104 12.5511 17.8322 12.75 17.8322H14.25C14.4489 17.8322 14.6397 17.9104 14.7803 18.0498C14.921 18.1891 15 18.3781 15 18.5752C15 18.7722 14.921 18.9612 14.7803 19.1006C14.6397 19.2399 14.4489 19.3182 14.25 19.3182Z" fill="#0575BC"/>
<path d="M18 19.3182H16.5C16.3011 19.3182 16.1103 19.2399 15.9697 19.1006C15.829 18.9612 15.75 18.7722 15.75 18.5752C15.75 18.3781 15.829 18.1891 15.9697 18.0498C16.1103 17.9104 16.3011 17.8322 16.5 17.8322H18C18.1989 17.8322 18.3897 17.9104 18.5303 18.0498C18.671 18.1891 18.75 18.3781 18.75 18.5752C18.75 18.7722 18.671 18.9612 18.5303 19.1006C18.3897 19.2399 18.1989 19.3182 18 19.3182Z" fill="#0575BC"/>
<path d="M21.75 19.3182H20.25C20.0511 19.3182 19.8603 19.2399 19.7197 19.1006C19.579 18.9612 19.5 18.7722 19.5 18.5752C19.5 18.3781 19.579 18.1891 19.7197 18.0498C19.8603 17.9104 20.0511 17.8322 20.25 17.8322H21.75C21.9489 17.8322 22.1397 17.9104 22.2803 18.0498C22.421 18.1891 22.5 18.3781 22.5 18.5752C22.5 18.7722 22.421 18.9612 22.2803 19.1006C22.1397 19.2399 21.9489 19.3182 21.75 19.3182Z" fill="#0575BC"/>
<path d="M14.25 22.2902H12.75C12.5511 22.2902 12.3603 22.2119 12.2197 22.0726C12.079 21.9332 12 21.7443 12 21.5472C12 21.3501 12.079 21.1612 12.2197 21.0218C12.3603 20.8825 12.5511 20.8042 12.75 20.8042H14.25C14.4489 20.8042 14.6397 20.8825 14.7803 21.0218C14.921 21.1612 15 21.3501 15 21.5472C15 21.7443 14.921 21.9332 14.7803 22.0726C14.6397 22.2119 14.4489 22.2902 14.25 22.2902Z" fill="#0575BC"/>
<path d="M18 22.2902H16.5C16.3011 22.2902 16.1103 22.2119 15.9697 22.0726C15.829 21.9332 15.75 21.7443 15.75 21.5472C15.75 21.3501 15.829 21.1612 15.9697 21.0218C16.1103 20.8825 16.3011 20.8042 16.5 20.8042H18C18.1989 20.8042 18.3897 20.8825 18.5303 21.0218C18.671 21.1612 18.75 21.3501 18.75 21.5472C18.75 21.7443 18.671 21.9332 18.5303 22.0726C18.3897 22.2119 18.1989 22.2902 18 22.2902Z" fill="#0575BC"/>
<path d="M21.75 22.2902H20.25C20.0511 22.2902 19.8603 22.2119 19.7197 22.0726C19.579 21.9332 19.5 21.7443 19.5 21.5472C19.5 21.3501 19.579 21.1612 19.7197 21.0218C19.8603 20.8825 20.0511 20.8042 20.25 20.8042H21.75C21.9489 20.8042 22.1397 20.8825 22.2803 21.0218C22.421 21.1612 22.5 21.3501 22.5 21.5472C22.5 21.7443 22.421 21.9332 22.2803 22.0726C22.1397 22.2119 21.9489 22.2902 21.75 22.2902Z" fill="#0575BC"/>
<path d="M14.25 25.2622H12.75C12.5511 25.2622 12.3603 25.184 12.2197 25.0446C12.079 24.9053 12 24.7163 12 24.5192C12 24.3222 12.079 24.1332 12.2197 23.9938C12.3603 23.8545 12.5511 23.7762 12.75 23.7762H14.25C14.4489 23.7762 14.6397 23.8545 14.7803 23.9938C14.921 24.1332 15 24.3222 15 24.5192C15 24.7163 14.921 24.9053 14.7803 25.0446C14.6397 25.184 14.4489 25.2622 14.25 25.2622Z" fill="#0575BC"/>
<path d="M18 25.2622H16.5C16.3011 25.2622 16.1103 25.184 15.9697 25.0446C15.829 24.9053 15.75 24.7163 15.75 24.5192C15.75 24.3222 15.829 24.1332 15.9697 23.9938C16.1103 23.8545 16.3011 23.7762 16.5 23.7762H18C18.1989 23.7762 18.3897 23.8545 18.5303 23.9938C18.671 24.1332 18.75 24.3222 18.75 24.5192C18.75 24.7163 18.671 24.9053 18.5303 25.0446C18.3897 25.184 18.1989 25.2622 18 25.2622Z" fill="#0575BC"/>
<path d="M21.75 25.2622H20.25C20.0511 25.2622 19.8603 25.184 19.7197 25.0446C19.579 24.9053 19.5 24.7163 19.5 24.5192C19.5 24.3222 19.579 24.1332 19.7197 23.9938C19.8603 23.8545 20.0511 23.7762 20.25 23.7762H21.75C21.9489 23.7762 22.1397 23.8545 22.2803 23.9938C22.421 24.1332 22.5 24.3222 22.5 24.5192C22.5 24.7163 22.421 24.9053 22.2803 25.0446C22.1397 25.184 21.9489 25.2622 21.75 25.2622Z" fill="#0575BC"/>
<path d="M14.25 28.2343H12.75C12.5511 28.2343 12.3603 28.156 12.2197 28.0166C12.079 27.8773 12 27.6883 12 27.4913C12 27.2942 12.079 27.1052 12.2197 26.9659C12.3603 26.8265 12.5511 26.7483 12.75 26.7483H14.25C14.4489 26.7483 14.6397 26.8265 14.7803 26.9659C14.921 27.1052 15 27.2942 15 27.4913C15 27.6883 14.921 27.8773 14.7803 28.0166C14.6397 28.156 14.4489 28.2343 14.25 28.2343Z" fill="#0575BC"/>
<path d="M18 28.2343H16.5C16.3011 28.2343 16.1103 28.156 15.9697 28.0166C15.829 27.8773 15.75 27.6883 15.75 27.4913C15.75 27.2942 15.829 27.1052 15.9697 26.9659C16.1103 26.8265 16.3011 26.7483 16.5 26.7483H18C18.1989 26.7483 18.3897 26.8265 18.5303 26.9659C18.671 27.1052 18.75 27.2942 18.75 27.4913C18.75 27.6883 18.671 27.8773 18.5303 28.0166C18.3897 28.156 18.1989 28.2343 18 28.2343Z" fill="#0575BC"/>
<path d="M21.75 28.2343H20.25C20.0511 28.2343 19.8603 28.156 19.7197 28.0166C19.579 27.8773 19.5 27.6883 19.5 27.4913C19.5 27.2942 19.579 27.1052 19.7197 26.9659C19.8603 26.8265 20.0511 26.7483 20.25 26.7483H21.75C21.9489 26.7483 22.1397 26.8265 22.2803 26.9659C22.421 27.1052 22.5 27.2942 22.5 27.4913C22.5 27.6883 22.421 27.8773 22.2803 28.0166C22.1397 28.156 21.9489 28.2343 21.75 28.2343Z" fill="#0575BC"/>
<path d="M36 38.6364H21C20.8011 38.6364 20.6103 38.5581 20.4697 38.4187C20.329 38.2794 20.25 38.0904 20.25 37.8934C20.25 37.6963 20.329 37.5073 20.4697 37.368C20.6103 37.2286 20.8011 37.1504 21 37.1504H35.25V4.45804H21.75V9.65909C21.75 9.85615 21.671 10.0451 21.5303 10.1845C21.3897 10.3238 21.1989 10.4021 21 10.4021C20.8011 10.4021 20.6103 10.3238 20.4697 10.1845C20.329 10.0451 20.25 9.85615 20.25 9.65909V3.71503C20.25 3.51798 20.329 3.32899 20.4697 3.18965C20.6103 3.05031 20.8011 2.97203 21 2.97203H36C36.1989 2.97203 36.3897 3.05031 36.5303 3.18965C36.671 3.32899 36.75 3.51798 36.75 3.71503V37.8934C36.75 38.0904 36.671 38.2794 36.5303 38.4187C36.3897 38.5581 36.1989 38.6364 36 38.6364Z" fill="#0575BC"/>
<path d="M36 4.45804H21C20.4033 4.45804 19.831 4.2232 19.409 3.80518C18.9871 3.38715 18.75 2.82019 18.75 2.22902C18.75 1.63785 18.9871 1.07089 19.409 0.652865C19.831 0.234843 20.4033 0 21 0H36C36.5967 0 37.169 0.234843 37.591 0.652865C38.0129 1.07089 38.25 1.63785 38.25 2.22902C38.25 2.82019 38.0129 3.38715 37.591 3.80518C37.169 4.2232 36.5967 4.45804 36 4.45804ZM21 1.48601C20.8011 1.48601 20.6103 1.56429 20.4697 1.70364C20.329 1.84298 20.25 2.03196 20.25 2.22902C20.25 2.42608 20.329 2.61507 20.4697 2.75441C20.6103 2.89375 20.8011 2.97203 21 2.97203H36C36.1989 2.97203 36.3897 2.89375 36.5303 2.75441C36.671 2.61507 36.75 2.42608 36.75 2.22902C36.75 2.03196 36.671 1.84298 36.5303 1.70364C36.3897 1.56429 36.1989 1.48601 36 1.48601H21Z" fill="#0575BC"/>
<path d="M29.25 16.3462H27.75C27.5511 16.3462 27.3603 16.2679 27.2197 16.1285C27.079 15.9892 27 15.8002 27 15.6031C27 15.4061 27.079 15.2171 27.2197 15.0778C27.3603 14.9384 27.5511 14.8601 27.75 14.8601H29.25C29.4489 14.8601 29.6397 14.9384 29.7803 15.0778C29.921 15.2171 30 15.4061 30 15.6031C30 15.8002 29.921 15.9892 29.7803 16.1285C29.6397 16.2679 29.4489 16.3462 29.25 16.3462Z" fill="#0575BC"/>
<path d="M33 16.3462H31.5C31.3011 16.3462 31.1103 16.2679 30.9697 16.1285C30.829 15.9892 30.75 15.8002 30.75 15.6031C30.75 15.4061 30.829 15.2171 30.9697 15.0778C31.1103 14.9384 31.3011 14.8601 31.5 14.8601H33C33.1989 14.8601 33.3897 14.9384 33.5303 15.0778C33.671 15.2171 33.75 15.4061 33.75 15.6031C33.75 15.8002 33.671 15.9892 33.5303 16.1285C33.3897 16.2679 33.1989 16.3462 33 16.3462Z" fill="#0575BC"/>
<path d="M29.25 13.3741H27.75C27.5511 13.3741 27.3603 13.2958 27.2197 13.1565C27.079 13.0172 27 12.8282 27 12.6311C27 12.4341 27.079 12.2451 27.2197 12.1057C27.3603 11.9664 27.5511 11.8881 27.75 11.8881H29.25C29.4489 11.8881 29.6397 11.9664 29.7803 12.1057C29.921 12.2451 30 12.4341 30 12.6311C30 12.8282 29.921 13.0172 29.7803 13.1565C29.6397 13.2958 29.4489 13.3741 29.25 13.3741Z" fill="#0575BC"/>
<path d="M33 13.3741H31.5C31.3011 13.3741 31.1103 13.2958 30.9697 13.1565C30.829 13.0172 30.75 12.8282 30.75 12.6311C30.75 12.4341 30.829 12.2451 30.9697 12.1057C31.1103 11.9664 31.3011 11.8881 31.5 11.8881H33C33.1989 11.8881 33.3897 11.9664 33.5303 12.1057C33.671 12.2451 33.75 12.4341 33.75 12.6311C33.75 12.8282 33.671 13.0172 33.5303 13.1565C33.3897 13.2958 33.1989 13.3741 33 13.3741Z" fill="#0575BC"/>
<path d="M29.25 10.4021H27.75C27.5511 10.4021 27.3603 10.3238 27.2197 10.1845C27.079 10.0451 27 9.85615 27 9.65909C27 9.46203 27.079 9.27305 27.2197 9.13371C27.3603 8.99436 27.5511 8.91608 27.75 8.91608H29.25C29.4489 8.91608 29.6397 8.99436 29.7803 9.13371C29.921 9.27305 30 9.46203 30 9.65909C30 9.85615 29.921 10.0451 29.7803 10.1845C29.6397 10.3238 29.4489 10.4021 29.25 10.4021Z" fill="#0575BC"/>
<path d="M33 10.4021H31.5C31.3011 10.4021 31.1103 10.3238 30.9697 10.1845C30.829 10.0451 30.75 9.85615 30.75 9.65909C30.75 9.46203 30.829 9.27305 30.9697 9.13371C31.1103 8.99436 31.3011 8.91608 31.5 8.91608H33C33.1989 8.91608 33.3897 8.99436 33.5303 9.13371C33.671 9.27305 33.75 9.46203 33.75 9.65909C33.75 9.85615 33.671 10.0451 33.5303 10.1845C33.3897 10.3238 33.1989 10.4021 33 10.4021Z" fill="#0575BC"/>
<path d="M29.25 7.43007H27.75C27.5511 7.43007 27.3603 7.35179 27.2197 7.21245C27.079 7.07311 27 6.88412 27 6.68706C27 6.49001 27.079 6.30102 27.2197 6.16168C27.3603 6.02234 27.5511 5.94406 27.75 5.94406H29.25C29.4489 5.94406 29.6397 6.02234 29.7803 6.16168C29.921 6.30102 30 6.49001 30 6.68706C30 6.88412 29.921 7.07311 29.7803 7.21245C29.6397 7.35179 29.4489 7.43007 29.25 7.43007Z" fill="#0575BC"/>
<path d="M25.5 7.43007H24C23.8011 7.43007 23.6103 7.35179 23.4697 7.21245C23.329 7.07311 23.25 6.88412 23.25 6.68706C23.25 6.49001 23.329 6.30102 23.4697 6.16168C23.6103 6.02234 23.8011 5.94406 24 5.94406H25.5C25.6989 5.94406 25.8897 6.02234 26.0303 6.16168C26.171 6.30102 26.25 6.49001 26.25 6.68706C26.25 6.88412 26.171 7.07311 26.0303 7.21245C25.8897 7.35179 25.6989 7.43007 25.5 7.43007Z" fill="#0575BC"/>
<path d="M33 7.43007H31.5C31.3011 7.43007 31.1103 7.35179 30.9697 7.21245C30.829 7.07311 30.75 6.88412 30.75 6.68706C30.75 6.49001 30.829 6.30102 30.9697 6.16168C31.1103 6.02234 31.3011 5.94406 31.5 5.94406H33C33.1989 5.94406 33.3897 6.02234 33.5303 6.16168C33.671 6.30102 33.75 6.49001 33.75 6.68706C33.75 6.88412 33.671 7.07311 33.5303 7.21245C33.3897 7.35179 33.1989 7.43007 33 7.43007Z" fill="#0575BC"/>
<path d="M29.25 19.3182H27.75C27.5511 19.3182 27.3603 19.2399 27.2197 19.1006C27.079 18.9612 27 18.7722 27 18.5752C27 18.3781 27.079 18.1891 27.2197 18.0498C27.3603 17.9104 27.5511 17.8322 27.75 17.8322H29.25C29.4489 17.8322 29.6397 17.9104 29.7803 18.0498C29.921 18.1891 30 18.3781 30 18.5752C30 18.7722 29.921 18.9612 29.7803 19.1006C29.6397 19.2399 29.4489 19.3182 29.25 19.3182Z" fill="#0575BC"/>
<path d="M33 19.3182H31.5C31.3011 19.3182 31.1103 19.2399 30.9697 19.1006C30.829 18.9612 30.75 18.7722 30.75 18.5752C30.75 18.3781 30.829 18.1891 30.9697 18.0498C31.1103 17.9104 31.3011 17.8322 31.5 17.8322H33C33.1989 17.8322 33.3897 17.9104 33.5303 18.0498C33.671 18.1891 33.75 18.3781 33.75 18.5752C33.75 18.7722 33.671 18.9612 33.5303 19.1006C33.3897 19.2399 33.1989 19.3182 33 19.3182Z" fill="#0575BC"/>
<path d="M29.25 22.2902H27.75C27.5511 22.2902 27.3603 22.2119 27.2197 22.0726C27.079 21.9332 27 21.7443 27 21.5472C27 21.3501 27.079 21.1612 27.2197 21.0218C27.3603 20.8825 27.5511 20.8042 27.75 20.8042H29.25C29.4489 20.8042 29.6397 20.8825 29.7803 21.0218C29.921 21.1612 30 21.3501 30 21.5472C30 21.7443 29.921 21.9332 29.7803 22.0726C29.6397 22.2119 29.4489 22.2902 29.25 22.2902Z" fill="#0575BC"/>
<path d="M33 22.2902H31.5C31.3011 22.2902 31.1103 22.2119 30.9697 22.0726C30.829 21.9332 30.75 21.7443 30.75 21.5472C30.75 21.3501 30.829 21.1612 30.9697 21.0218C31.1103 20.8825 31.3011 20.8042 31.5 20.8042H33C33.1989 20.8042 33.3897 20.8825 33.5303 21.0218C33.671 21.1612 33.75 21.3501 33.75 21.5472C33.75 21.7443 33.671 21.9332 33.5303 22.0726C33.3897 22.2119 33.1989 22.2902 33 22.2902Z" fill="#0575BC"/>
<path d="M29.25 25.2622H27.75C27.5511 25.2622 27.3603 25.184 27.2197 25.0446C27.079 24.9053 27 24.7163 27 24.5192C27 24.3222 27.079 24.1332 27.2197 23.9938C27.3603 23.8545 27.5511 23.7762 27.75 23.7762H29.25C29.4489 23.7762 29.6397 23.8545 29.7803 23.9938C29.921 24.1332 30 24.3222 30 24.5192C30 24.7163 29.921 24.9053 29.7803 25.0446C29.6397 25.184 29.4489 25.2622 29.25 25.2622Z" fill="#0575BC"/>
<path d="M33 25.2622H31.5C31.3011 25.2622 31.1103 25.184 30.9697 25.0446C30.829 24.9053 30.75 24.7163 30.75 24.5192C30.75 24.3222 30.829 24.1332 30.9697 23.9938C31.1103 23.8545 31.3011 23.7762 31.5 23.7762H33C33.1989 23.7762 33.3897 23.8545 33.5303 23.9938C33.671 24.1332 33.75 24.3222 33.75 24.5192C33.75 24.7163 33.671 24.9053 33.5303 25.0446C33.3897 25.184 33.1989 25.2622 33 25.2622Z" fill="#0575BC"/>
<path d="M29.25 28.2343H27.75C27.5511 28.2343 27.3603 28.156 27.2197 28.0166C27.079 27.8773 27 27.6883 27 27.4913C27 27.2942 27.079 27.1052 27.2197 26.9659C27.3603 26.8265 27.5511 26.7483 27.75 26.7483H29.25C29.4489 26.7483 29.6397 26.8265 29.7803 26.9659C29.921 27.1052 30 27.2942 30 27.4913C30 27.6883 29.921 27.8773 29.7803 28.0166C29.6397 28.156 29.4489 28.2343 29.25 28.2343Z" fill="#0575BC"/>
<path d="M33 28.2343H31.5C31.3011 28.2343 31.1103 28.156 30.9697 28.0166C30.829 27.8773 30.75 27.6883 30.75 27.4913C30.75 27.2942 30.829 27.1052 30.9697 26.9659C31.1103 26.8265 31.3011 26.7483 31.5 26.7483H33C33.1989 26.7483 33.3897 26.8265 33.5303 26.9659C33.671 27.1052 33.75 27.2942 33.75 27.4913C33.75 27.6883 33.671 27.8773 33.5303 28.0166C33.3897 28.156 33.1989 28.2343 33 28.2343Z" fill="#0575BC"/>
<path d="M29.25 31.2063H27.75C27.5511 31.2063 27.3603 31.128 27.2197 30.9887C27.079 30.8493 27 30.6603 27 30.4633C27 30.2662 27.079 30.0772 27.2197 29.9379C27.3603 29.7986 27.5511 29.7203 27.75 29.7203H29.25C29.4489 29.7203 29.6397 29.7986 29.7803 29.9379C29.921 30.0772 30 30.2662 30 30.4633C30 30.6603 29.921 30.8493 29.7803 30.9887C29.6397 31.128 29.4489 31.2063 29.25 31.2063Z" fill="#0575BC"/>
<path d="M33 31.2063H31.5C31.3011 31.2063 31.1103 31.128 30.9697 30.9887C30.829 30.8493 30.75 30.6603 30.75 30.4633C30.75 30.2662 30.829 30.0772 30.9697 29.9379C31.1103 29.7986 31.3011 29.7203 31.5 29.7203H33C33.1989 29.7203 33.3897 29.7986 33.5303 29.9379C33.671 30.0772 33.75 30.2662 33.75 30.4633C33.75 30.6603 33.671 30.8493 33.5303 30.9887C33.3897 31.128 33.1989 31.2063 33 31.2063Z" fill="#0575BC"/>
<path d="M3.75 38.6364C3.55109 38.6364 3.36032 38.5581 3.21967 38.4187C3.07902 38.2794 3 38.0904 3 37.8934V32.6923C3 32.4953 3.07902 32.3063 3.21967 32.1669C3.36032 32.0276 3.55109 31.9493 3.75 31.9493C3.94891 31.9493 4.13968 32.0276 4.28033 32.1669C4.42098 32.3063 4.5 32.4953 4.5 32.6923V37.8934C4.5 38.0904 4.42098 38.2794 4.28033 38.4187C4.13968 38.5581 3.94891 38.6364 3.75 38.6364Z" fill="#0575BC"/>
<path d="M3.75 34.9213C2.7558 34.9202 1.80265 34.5284 1.09964 33.8319C0.396635 33.1355 0.00117109 32.1912 0 31.2063C0 29.1449 1.63808 26.7483 3.75 26.7483C5.86193 26.7483 7.5 29.1449 7.5 31.2063C7.49883 32.1912 7.10337 33.1355 6.40036 33.8319C5.69735 34.5284 4.7442 34.9202 3.75 34.9213ZM3.75 28.2343C2.59095 28.2343 1.5 29.9086 1.5 31.2063C1.5 31.7975 1.73705 32.3644 2.15901 32.7825C2.58097 33.2005 3.15326 33.4353 3.75 33.4353C4.34674 33.4353 4.91903 33.2005 5.34099 32.7825C5.76295 32.3644 6 31.7975 6 31.2063C6 29.9086 4.90905 28.2343 3.75 28.2343Z" fill="#0575BC"/>
<path d="M41.25 38.6364C41.0511 38.6364 40.8603 38.5581 40.7197 38.4187C40.579 38.2794 40.5 38.0904 40.5 37.8934V32.6923C40.5 32.4953 40.579 32.3063 40.7197 32.1669C40.8603 32.0276 41.0511 31.9493 41.25 31.9493C41.4489 31.9493 41.6397 32.0276 41.7803 32.1669C41.921 32.3063 42 32.4953 42 32.6923V37.8934C42 38.0904 41.921 38.2794 41.7803 38.4187C41.6397 38.5581 41.4489 38.6364 41.25 38.6364Z" fill="#0575BC"/>
<path d="M41.25 34.9213C40.2558 34.9202 39.3027 34.5284 38.5996 33.8319C37.8966 33.1355 37.5012 32.1912 37.5 31.2063C37.5 29.1449 39.1381 26.7483 41.25 26.7483C43.3619 26.7483 45 29.1449 45 31.2063C44.9988 32.1912 44.6034 33.1355 43.9004 33.8319C43.1974 34.5284 42.2442 34.9202 41.25 34.9213ZM41.25 28.2343C40.091 28.2343 39 29.9086 39 31.2063C39 31.7975 39.2371 32.3644 39.659 32.7825C40.081 33.2005 40.6533 33.4353 41.25 33.4353C41.8467 33.4353 42.419 33.2005 42.841 32.7825C43.2629 32.3644 43.5 31.7975 43.5 31.2063C43.5 29.9086 42.4091 28.2343 41.25 28.2343Z" fill="#0575BC"/>
<path d="M43.5 38.6364H1.5C1.30109 38.6364 1.11032 38.5581 0.96967 38.4187C0.829018 38.2794 0.75 38.0904 0.75 37.8934C0.75 37.6963 0.829018 37.5073 0.96967 37.368C1.11032 37.2286 1.30109 37.1504 1.5 37.1504H43.5C43.6989 37.1504 43.8897 37.2286 44.0303 37.368C44.171 37.5073 44.25 37.6963 44.25 37.8934C44.25 38.0904 44.171 38.2794 44.0303 38.4187C43.8897 38.5581 43.6989 38.6364 43.5 38.6364Z" fill="#0575BC"/>
</svg>
