<svg width="27" height="27" viewBox="0 0 27 27" fill="none" xmlns="http://www.w3.org/2000/svg">
<path d="M10.1812 15.3633L13.5078 13.5446L16.8344 15.3633M10.1812 15.3633L13.5078 17.1821L16.8344 15.3633M10.1812 15.3633V18.2197L13.5078 20.0384L16.8344 18.2197V15.3633M13.5078 17.1747V20.0311M13.5252 10.6956L16.8518 8.87688L20.1784 10.6956M13.5252 10.6956L16.8518 12.5144L20.1784 10.6956M13.5252 10.6956V13.552M13.5252 10.6956L12.368 11.3283M13.5252 10.6956L10.1986 8.87687L6.87195 10.6956M20.1784 10.6956V13.552L16.8518 15.3707L13.5252 13.552M13.5252 13.552L10.1986 15.3707L6.87198 13.552L6.87195 10.6956M16.8518 12.507V15.3633M6.87195 10.6956L10.1986 12.5144L10.9936 12.0797M10.1986 12.507V15.3633M15.5566 23.6793C16.7397 23.4416 17.8498 23.0024 18.8502 22.3996M20.0855 21.527C21.8739 20.0579 23.1628 18.003 23.6584 15.6554M3.32066 15.5566C4.13478 19.608 7.30716 22.806 11.3446 23.6584M11.4435 3.32101C7.39205 4.13507 4.19401 7.3073 3.34154 11.3446M23.6793 11.4434C22.8652 7.39205 19.6928 4.19402 15.6554 3.3416M15.6673 3.11694C15.6673 4.28609 14.7196 5.23387 13.5504 5.23387C12.3813 5.23387 11.4335 4.28609 11.4335 3.11694C11.4335 1.94778 12.3813 1 13.5504 1C14.7196 1 15.6673 1.94778 15.6673 3.11694ZM23.8831 15.6673C22.7139 15.6673 21.7661 14.7196 21.7661 13.5504C21.7661 12.3813 22.7139 11.4335 23.8831 11.4335C25.0522 11.4335 26 12.3813 26 13.5504C26 14.7196 25.0522 15.6673 23.8831 15.6673ZM11.3327 23.8831C11.3327 22.7139 12.2804 21.7661 13.4496 21.7661C14.6188 21.7661 15.5665 22.7139 15.5665 23.8831C15.5665 25.0522 14.6188 26 13.4496 26C12.2804 26 11.3327 25.0522 11.3327 23.8831ZM3.11694 11.3327C4.28609 11.3327 5.23387 12.2804 5.23387 13.4496C5.23387 14.6188 4.28609 15.5665 3.11694 15.5665C1.94778 15.5665 1 14.6188 1 13.4496C1 12.2804 1.94778 11.3327 3.11694 11.3327Z" stroke="#0575BC" stroke-width="1.1" stroke-miterlimit="10" stroke-linecap="round" stroke-linejoin="round"/>
</svg>
