<svg width="45" height="45" viewBox="0 0 45 45" fill="none" xmlns="http://www.w3.org/2000/svg">
<circle cx="22.5" cy="22.5" r="22.5" fill="#F0F0F0"/>
<g clip-path="url(#clip0_311_1427)">
<path d="M22.5116 10C15.6016 10 10 15.6016 10 22.5116C10 29.4216 15.6016 35.0233 22.5116 35.0233C29.4216 35.0233 35.0233 29.4216 35.0233 22.5116C35.0233 15.6016 29.4216 10 22.5116 10ZM16.1987 22.0954C16.1517 21.9045 16.1125 21.7315 16.0788 21.5671C15.9183 20.7837 15.8247 19.9816 15.8006 19.1834C15.7992 19.1338 15.8037 19.1237 15.8197 19.0963C15.827 19.0834 15.8335 19.0723 15.9284 19.0219C17.9469 17.9469 20.223 17.3787 22.5104 17.3787C23.0031 17.3787 23.502 17.4058 24.0001 17.4598C22.771 18.1717 22.0054 19.4797 22.0054 20.9456L22.0055 20.9536C22.0009 22.0184 21.4521 22.9816 20.5342 23.5325C20.5081 23.5486 20.482 23.5633 20.4528 23.5793C20.0071 23.8274 19.5002 23.9585 18.9872 23.9585C17.7823 23.9585 16.6635 23.2103 16.1987 22.0954ZM24.9102 28.8729C24.7663 29.0112 24.6353 29.1325 24.5096 29.2439C23.9579 29.7337 23.3593 30.1846 22.7311 30.5839C22.6711 30.6217 22.6416 30.6339 22.5198 30.6339C22.3852 30.6339 22.347 30.6185 22.2918 30.5833C19.9857 29.1197 18.126 26.9549 17.0045 24.4428C17.6095 24.7857 18.2953 24.9702 18.9874 24.9702C19.6719 24.9702 20.3481 24.7954 20.9408 24.4656C20.9809 24.444 21.0212 24.4207 21.0516 24.4017C21.4936 24.1556 21.9984 24.0256 22.5117 24.0256C23.0223 24.0256 23.5269 24.1556 23.9612 24.3958L23.989 24.4118C24.0118 24.4246 24.0348 24.4379 24.06 24.4534C24.9662 24.9959 25.5291 25.9886 25.5291 27.0441C25.529 27.6991 25.3094 28.348 24.9102 28.8729ZM26.5406 27.0036C26.5264 25.6095 25.7788 24.3031 24.5836 23.5875C24.5507 23.5674 24.5157 23.5475 24.4878 23.5323L24.4747 23.5242C23.5627 22.9722 23.018 22.0068 23.0176 20.9419V20.9033C23.0377 19.2563 24.3836 17.9227 26.035 17.9227C26.1875 17.9227 26.3426 17.9346 26.4967 17.9581C26.6682 18.0089 26.8368 18.0622 26.9979 18.1166C27.7169 18.3591 28.4224 18.6637 29.0948 19.0219C29.1899 19.0725 29.1965 19.0839 29.2037 19.0962C29.2199 19.1244 29.2238 19.133 29.2224 19.1824C29.1381 21.9764 28.1903 24.7303 26.5406 27.0036Z" fill="#1878BD"/>
</g>
<defs>
<clipPath id="clip0_311_1427">
<rect width="25" height="25" fill="white" transform="translate(10 10)"/>
</clipPath>
</defs>
</svg>
