<svg width="36" height="45" viewBox="0 0 36 45" fill="none" xmlns="http://www.w3.org/2000/svg">
<path d="M30.6462 30.1448C33.7252 26.9419 35.6209 22.5936 35.6209 17.8105C35.621 7.9897 27.6312 0 17.8105 0C7.98979 0 0 7.9897 0 17.8105C0 22.5936 1.89571 26.9418 4.9747 30.1447L0.37582 38.1102C0.203027 38.4093 0.22166 38.7821 0.423281 39.0625C0.624902 39.3431 0.972159 39.4795 1.31089 39.4112L7.41226 38.1796L9.39639 44.0793C9.50651 44.4068 9.79831 44.6394 10.1421 44.6737C10.1713 44.6767 10.2006 44.6781 10.2297 44.6781C10.5413 44.6781 10.8326 44.5124 10.9906 44.2387L16.018 35.5311C16.6076 35.5903 17.2056 35.6209 17.8105 35.6209C18.4155 35.6209 19.0134 35.5903 19.603 35.5311L24.8162 44.5605C24.9742 44.8342 25.2655 45 25.5771 45C25.6061 45 25.6354 44.9985 25.6648 44.9956C26.0086 44.9612 26.3003 44.7287 26.4104 44.4012L28.3946 38.5015L34.4959 39.7331C34.8347 39.8013 35.1819 39.665 35.3835 39.3844C35.5852 39.1039 35.6038 38.7312 35.431 38.432L30.6462 30.1448ZM10.4418 41.6735L8.83125 36.8845C8.69001 36.4647 8.25829 36.2157 7.82429 36.3031L2.87165 37.3029L6.29024 31.3817C8.51115 33.2699 11.1991 34.624 14.1545 35.243L10.4418 41.6735ZM1.75781 17.8105C1.75781 8.95904 8.95904 1.75781 17.8105 1.75781C26.662 1.75781 33.8632 8.95904 33.8632 17.8105C33.8632 26.662 26.662 33.8631 17.8105 33.8631C8.95904 33.8631 1.75781 26.662 1.75781 17.8105ZM27.9824 36.6251C27.5481 36.5377 27.1167 36.7866 26.9755 37.2065L25.3649 41.9954L21.4663 35.2429C24.4217 34.6239 27.1097 33.2698 29.3306 31.3816L32.935 37.6247L27.9824 36.6251ZM26.6932 15.3563C25.9352 15.3563 25.6364 14.777 25.5628 14.5994C25.4893 14.4219 25.2909 13.8008 25.8267 13.2649C26.1107 12.9809 26.2672 12.6034 26.2672 12.2018C26.2672 11.8001 26.1108 11.4225 25.8268 11.1387L24.4824 9.79418C24.1984 9.51029 23.8208 9.35385 23.4192 9.35385C23.0176 9.35385 22.6401 9.51021 22.3561 9.79418C21.8202 10.3303 21.1991 10.1319 21.0215 10.0583C20.844 9.98473 20.2646 9.68581 20.2646 8.92784C20.2646 8.09886 19.5902 7.42447 18.7612 7.42447H16.8599C16.0309 7.42447 15.3565 8.09886 15.3565 8.92784C15.3565 9.68581 14.7771 9.98473 14.5995 10.0583C14.4219 10.1318 13.8008 10.33 13.265 9.79427C12.981 9.51029 12.6034 9.35385 12.2018 9.35385C11.8002 9.35385 11.4226 9.51021 11.1386 9.79418L9.79427 11.1386C9.51029 11.4225 9.35385 11.8001 9.35385 12.2018C9.35385 12.6034 9.51021 12.9809 9.79418 13.2648C10.3301 13.8008 10.1318 14.4219 10.0582 14.5994C9.98464 14.777 9.68572 15.3563 8.92784 15.3563C8.09886 15.3563 7.42447 16.0308 7.42447 16.8598V18.7611C7.42447 19.5901 8.09886 20.2645 8.92784 20.2645C9.68581 20.2645 9.98464 20.8439 10.0582 21.0214C10.1318 21.199 10.3301 21.8201 9.79427 22.356C9.51029 22.64 9.35385 23.0176 9.35385 23.4192C9.35385 23.8207 9.51021 24.1983 9.79418 24.4823L11.1386 25.8268C11.4226 26.1107 11.8001 26.2672 12.2018 26.2672C12.6034 26.2672 12.9809 26.1108 13.2649 25.8268C13.8021 25.2897 14.4227 25.4878 14.6001 25.5613C14.7776 25.6348 15.3564 25.9335 15.3564 26.6932C15.3564 27.5222 16.0308 28.1965 16.8598 28.1965H18.7611C19.5901 28.1965 20.2645 27.5221 20.2645 26.6932C20.2645 25.9352 20.8439 25.6364 21.0215 25.5628C21.199 25.4891 21.82 25.2908 22.3561 25.8269C22.9423 26.4131 23.8961 26.4131 24.4824 25.8269L25.8267 24.4824C26.1107 24.1985 26.2672 23.8209 26.2672 23.4192C26.2672 23.0176 26.1108 22.6401 25.8268 22.3562C25.2909 21.8202 25.4893 21.199 25.5628 21.0215C25.6364 20.844 25.9353 20.2646 26.6932 20.2646C27.5222 20.2646 28.1965 19.5902 28.1965 18.7612V16.8599C28.1966 16.0308 27.5222 15.3563 26.6932 15.3563ZM26.4388 18.517C25.3205 18.6073 24.3766 19.2918 23.9389 20.3488C23.501 21.4058 23.6843 22.5572 24.4113 23.412L23.412 24.4113C22.5574 23.6843 21.406 23.501 20.3489 23.9388C19.2919 24.3765 18.6074 25.3204 18.517 26.4387H17.104C17.0138 25.3194 16.3295 24.375 15.2728 23.9372C14.2161 23.4996 13.0643 23.6834 12.209 24.4113L11.2098 23.412C11.9367 22.5573 12.12 21.4058 11.6822 20.3488C11.2445 19.2918 10.3006 18.6073 9.18229 18.517V17.104C10.3006 17.0136 11.2444 16.3291 11.6822 15.2721C12.1201 14.2152 11.9368 13.0637 11.2098 12.209L12.2091 11.2097C13.0637 11.9367 14.2153 12.12 15.2722 11.6822C16.3292 11.2444 17.0137 10.3005 17.1041 9.1822H18.5171C18.6074 10.3006 19.2919 11.2444 20.349 11.6822C21.406 12.12 22.5574 11.9366 23.4121 11.2097L24.4114 12.2089C23.6845 13.0636 23.5012 14.2151 23.9389 15.2721C24.3767 16.329 25.3206 17.0136 26.4389 17.104V18.517H26.4388ZM17.8105 12.949C15.1298 12.949 12.949 15.1298 12.949 17.8105C12.949 20.4912 15.1298 22.6719 17.8105 22.6719C20.4912 22.6719 22.672 20.4911 22.672 17.8104C22.672 15.1298 20.4912 12.949 17.8105 12.949ZM17.8105 20.9141C16.0992 20.9141 14.7068 19.5218 14.7068 17.8104C14.7068 16.099 16.0991 14.7067 17.8105 14.7067C19.5219 14.7067 20.9142 16.099 20.9142 17.8104C20.9142 19.5218 19.5219 20.9141 17.8105 20.9141ZM17.8105 3.33738C9.83004 3.33738 3.33747 9.82995 3.33747 17.8104C3.33747 25.7909 9.83004 32.2835 17.8105 32.2835C25.791 32.2835 32.2835 25.7909 32.2835 17.8104C32.2835 9.82995 25.791 3.33738 17.8105 3.33738ZM17.8105 30.5256C10.7993 30.5256 5.09528 24.8216 5.09528 17.8104C5.09528 10.7992 10.7993 5.0952 17.8105 5.0952C24.8217 5.0952 30.5257 10.7992 30.5257 17.8104C30.5257 24.8216 24.8217 30.5256 17.8105 30.5256Z" fill="#0676BC"/>
</svg>
