<svg width="44" height="44" viewBox="0 0 44 44" fill="none" xmlns="http://www.w3.org/2000/svg">
<rect width="44" height="44" rx="22" fill="#2F84C4"/>
<path d="M30.6843 21.4325C30.1845 18.997 28.6799 16.921 26.6254 15.6592H28.601C28.8596 16.2958 29.4844 16.7461 30.2128 16.7461C31.1718 16.7461 31.952 15.966 31.952 15.007C31.952 14.048 31.1718 13.2679 30.2128 13.2679C29.4844 13.2679 28.8596 13.7182 28.601 14.3548H23.7873V13.2197H20.2127V14.3548H15.3991C15.1405 13.7182 14.5157 13.2679 13.7873 13.2679C12.8283 13.2679 12.0481 14.048 12.0481 15.007C12.0481 15.966 12.8283 16.7462 13.7873 16.7462C14.5157 16.7462 15.1405 16.2959 15.3991 15.6592H17.3748C15.3202 16.9211 13.8155 18.9971 13.3159 21.4325H12V25.0071H15.5745V21.4325H14.6523C15.3165 18.697 17.4772 16.5363 20.2127 15.872V16.7943H23.7873V15.872C26.5228 16.5363 28.6835 18.697 29.3478 21.4326H28.4255V25.0071H32V21.4325H30.6843V21.4325Z" fill="white"/>
<path d="M22.6517 19.6201V23.1599C23.0741 23.3909 23.3605 23.8393 23.3605 24.3546C23.3605 25.1063 22.7512 25.7156 21.9995 25.7156C21.2479 25.7156 20.6385 25.1063 20.6385 24.3546C20.6385 23.8393 20.925 23.3909 21.3473 23.1599V19.6201L17.2617 25.1562L18.6417 27.7107H25.3573L26.7373 25.1562L22.6517 19.6201Z" fill="white"/>
<path d="M25.1353 29.0156H18.8654L18.1484 30.7805H22.0004H25.8523L25.1353 29.0156Z" fill="white"/>
</svg>
