<svg width="24" height="24" viewBox="0 0 24 24" fill="none" xmlns="http://www.w3.org/2000/svg">
<path d="M9.9667 9.02943H7.01764C6.76447 9.02943 6.55922 9.23458 6.55922 9.48763C6.55922 9.74068 6.76447 9.94583 7.01764 9.94583H9.46594C9.25013 11.1004 8.23441 11.9771 7.01764 11.9771C5.64427 11.9771 4.52699 10.8603 4.52699 9.48759C4.52699 8.11486 5.64427 6.99811 7.01764 6.99811C7.6829 6.99811 8.30834 7.2571 8.77878 7.72727C8.95783 7.90624 9.24808 7.90624 9.42703 7.72727C9.60608 7.54831 9.60608 7.2582 9.42703 7.07932C8.7834 6.43599 7.92774 6.08171 7.01759 6.08171C5.13867 6.08171 3.61012 7.60955 3.61012 9.48759C3.61012 11.3656 5.13867 12.8935 7.01759 12.8935C8.89651 12.8935 10.4251 11.3656 10.4251 9.48759C10.4251 9.23458 10.2199 9.02943 9.9667 9.02943Z" fill="#0575BC"/>
<path d="M21.5047 4.0322H12.3327L11.1011 0.314195C11.039 0.126638 10.8636 0 10.6659 0H1.90521C0.854692 0 0 0.85429 0 1.90432V17.0959C0 18.1459 0.854692 19.0002 1.90521 19.0002H11.1935L12.4314 22.7189C12.4937 22.9061 12.6689 23.0324 12.8663 23.0324H21.5048C22.5553 23.0324 23.41 22.1781 23.41 21.1281V5.93652C23.41 4.88649 22.5553 4.0322 21.5047 4.0322ZM1.90521 18.0838C1.36025 18.0838 0.916875 17.6407 0.916875 17.0959V1.90432C0.916875 1.35961 1.36025 0.916443 1.90521 0.916443H10.3348L13.567 10.6744C13.5672 10.675 13.5674 10.6756 13.5677 10.6763L16.0213 18.0838H1.90521ZM15.429 12.7627C15.4658 12.8134 15.9239 13.4426 16.6341 14.3196C16.4339 14.5826 16.2219 14.8439 15.9981 15.0981L14.6395 10.9969H18.6376C18.3543 11.5924 17.8631 12.5422 17.1885 13.5441C16.5689 12.7708 16.1795 12.236 16.1713 12.2247C16.0226 12.0199 15.736 11.9742 15.531 12.1228C15.3261 12.2713 15.2805 12.5578 15.429 12.7627ZM12.1597 19.0002H15.5963L13.0586 21.7004L12.1597 19.0002ZM22.4931 21.1281C22.4931 21.6728 22.0498 22.116 21.5048 22.116H13.926L16.99 18.8557L16.9899 18.8556C17.0033 18.8413 17.016 18.8263 17.0275 18.8103C17.1137 18.691 17.1373 18.5376 17.0911 18.398L16.328 16.0945C16.6514 15.7561 16.9535 15.4025 17.2336 15.045C17.8416 15.7658 18.5612 16.5735 19.3267 17.3386C19.4161 17.4281 19.5335 17.4728 19.6508 17.4728C19.7681 17.4728 19.8854 17.4281 19.9749 17.3386C20.154 17.1597 20.154 16.8695 19.9749 16.6907C19.1765 15.8927 18.4197 15.0343 17.7945 14.2853C18.7662 12.8913 19.3963 11.5659 19.6479 10.997H20.6288C20.882 10.997 21.0872 10.7918 21.0872 10.5388C21.0872 10.2857 20.882 10.0806 20.6288 10.0806H19.3389C19.3381 10.0806 19.3373 10.0806 19.3364 10.0806H17.6032V9.25579C17.6032 9.00274 17.398 8.79759 17.1448 8.79759C16.8917 8.79759 16.6864 9.00274 16.6864 9.25579V10.0805H14.336L12.6361 4.94865H21.5047C22.0497 4.94865 22.493 5.39181 22.493 5.93652V21.1281H22.4931Z" fill="#0575BC"/>
</svg>
