<svg width="47" height="41" viewBox="0 0 47 41" fill="none" xmlns="http://www.w3.org/2000/svg">
<path d="M3.62241 31.5549L1.42266 29.3551C0.893342 28.8258 0.856672 27.9796 1.33818 27.4065L8.9949 18.2929M25.9008 7.55354L32.0737 5.30371C32.3287 5.21099 32.5901 5.16654 32.8469 5.16654C33.7701 5.16654 34.636 5.73569 34.9707 6.65344C35.398 7.82607 34.7937 9.12302 33.6209 9.55029C33.8768 9.45758 34.1382 9.41312 34.395 9.41312C35.3174 9.41312 36.1832 9.98227 36.5178 10.8991C36.9451 12.0717 36.3408 13.3687 35.168 13.796C36.3268 13.3732 37.607 13.9591 38.0501 15.104C38.5062 16.2859 37.8583 17.6254 36.668 18.0592L36.1451 18.2502C37.2094 17.8617 38.3866 18.4105 38.7741 19.4748C39.1617 20.539 38.6138 21.7154 37.5495 22.1038M37.5495 22.1038L25.797 29.239C24.9275 29.7665 23.9309 30.0455 22.914 30.0455H17.1619C16.3833 30.0455 15.6787 30.5089 15.3701 31.2237L12.2804 38.3884C12.0168 38.9997 11.2196 39.1522 10.749 38.6815L5.9933 33.9258M37.5495 22.1038L45.5796 28.6351C46.1035 29.0612 46.1438 29.847 45.6663 30.3245L37.1345 38.8563C36.716 39.2748 36.0199 39.2084 35.688 38.7183L29.9639 30.2638M25.5994 2.22777C25.8239 2.19888 26.0506 2.1843 26.2781 2.1843H29.2751C30.3162 2.1843 31.0392 3.21976 30.6804 4.19682C30.4635 4.78825 30.1214 5.31575 29.6857 5.75045C29.5631 5.87259 29.4331 5.98731 29.2964 6.09406M20.1293 4.72124C20.3329 4.58516 20.5449 4.46075 20.7642 4.34884L21.6399 3.90101M23.3575 7.30255L22.6881 6.60491C21.35 5.21036 21.2855 3.02908 22.5387 1.55783C23.1485 0.841996 24.2434 0.810487 24.8934 1.49002L29.4538 6.25858L25.3702 7.74666C24.67 8.00182 23.8853 7.8287 23.3575 7.30255ZM23.3575 7.30255C24.3322 8.08186 24.4904 9.50375 23.7111 10.4785C22.9318 11.4532 21.5099 11.6114 20.5352 10.8321M23.3575 7.30255L19.9905 4.61033C19.1675 3.95217 18.0254 3.96276 17.2208 4.56895M20.5352 10.8321L17.1683 8.13989C16.1936 7.36059 14.7717 7.51886 13.9924 8.49356C13.2131 9.46817 13.3714 10.8901 14.346 11.6695M20.5352 10.8321C21.5099 11.6114 21.6682 13.0333 20.8889 14.008C20.1096 14.9827 18.6877 15.141 17.713 14.3617M14.346 11.6695L17.713 14.3617M14.346 11.6695C13.3713 10.8902 11.9494 11.0484 11.1701 12.0231C10.3908 12.9977 10.5492 14.4196 11.5238 15.199L14.8907 17.8913C15.8654 18.6706 17.2873 18.5123 18.0666 17.5376C18.8459 16.5629 18.6877 15.141 17.713 14.3617M9.43658 18.7816L12.4924 21.225C13.377 21.9323 14.6675 21.7886 15.3749 20.904C16.0822 20.0194 15.9385 18.7289 15.0539 18.0215L11.9981 15.5781C11.1134 14.8708 9.82293 15.0145 9.1156 15.8991C8.40827 16.7837 8.55197 18.0742 9.43658 18.7816Z" stroke="#0676BC" stroke-width="2" stroke-miterlimit="10" stroke-linecap="round" stroke-linejoin="round"/>
</svg>
