<svg width="238" height="238" viewBox="0 0 238 238" fill="none" xmlns="http://www.w3.org/2000/svg">
<path d="M49.2734 181.754C76.6397 181.754 98.082 166.44 98.082 146.891V139.918H82.4261L61.2376 65.7638C68.9517 64.3841 75.2085 62.8604 80.9093 61.4551C90.5451 59.0863 99.3301 57.0847 112.027 56.5013V199.405L54.1218 238H183.865L125.973 199.405V56.5013C138.67 57.0842 147.455 59.0863 157.091 61.4551C162.792 62.8604 169.048 64.3841 176.762 65.7638L155.574 139.918H139.918V146.891C139.918 166.44 161.36 181.754 188.727 181.754C216.093 181.754 238 166.44 238 146.891V139.918H221.879L201.573 68.8527C211.5 69.6578 223.574 70.1914 238 70.1914V56.2461C196.178 56.2461 178.281 43.3699 162.899 32.0119C152.138 24.0603 141.892 16.0469 125.973 14.3204V0H112.027V14.3204C96.1083 16.0464 85.8622 24.0603 75.1011 32.0119C59.7189 43.3699 41.8225 56.2461 0 56.2461V70.1914C14.4227 70.1914 26.4956 69.6587 36.4219 68.8536L16.1208 139.918H0V146.891C0 166.44 21.9072 181.754 49.2734 181.754ZM207.371 139.918H170.082L188.725 74.6692L207.371 139.918ZM49.2711 74.659L67.9179 139.918H30.6281L49.2711 74.659Z" fill="white"/>
</svg>
