<svg width="252" height="224" viewBox="0 0 252 224" fill="none" xmlns="http://www.w3.org/2000/svg">
<path d="M0.122484 112.174C0.122484 79.3725 0.126681 46.578 0.135073 13.7908C0.139262 11.9037 0.244321 10.0182 0.4498 8.1423C0.849503 4.49311 5.44451 0.538498 9.26214 0.387366C23.8875 -0.198268 38.5317 0.0725088 53.1476 0.0410231C84.3034 0.00743831 115.461 0.038924 146.621 0.13548C149.709 0.13548 152.743 0.33384 155.396 2.44024C158.798 5.13856 159.692 8.71849 159.705 12.755C159.73 21.3065 159.793 29.8612 159.799 38.4127C159.818 55.1505 159.783 71.8883 159.846 88.6261C159.846 90.3264 159.39 91.2867 157.782 91.9888C150.452 95.1846 144.078 99.8602 138.067 105.068C137.844 105.289 137.607 105.494 137.356 105.682C136.981 105.928 136.648 106.441 136.125 106.123C135.722 105.877 135.811 105.377 135.811 104.967C135.811 102.499 135.811 100.033 135.811 97.5681C135.811 93.0026 135.77 88.4372 135.836 83.8749C135.855 82.4297 135.342 81.9574 133.913 81.9669C124.891 82.011 115.868 82.011 106.846 81.9669C105.424 81.9669 104.914 82.4266 104.92 83.8718C104.968 92.8977 104.968 101.924 104.92 110.95C104.92 112.376 105.395 112.873 106.834 112.88C113.443 112.905 120.052 113.024 126.661 113.113C127.291 113.113 127.92 113.113 128.55 113.191C129.604 113.305 129.966 113.786 129.311 114.766C127.671 117.203 126.039 119.645 124.417 122.092C123.864 122.933 123.039 122.936 122.189 122.936C117.154 122.936 112.118 122.936 107.082 122.936C105.03 122.936 104.961 123.005 104.958 125.061C104.958 134.035 104.958 143.007 104.958 151.979C104.958 153.959 105.021 154.009 106.991 154.019C108.879 154.019 110.768 154.044 112.656 154.019C113.704 154.003 114.192 154.428 114.176 155.511C114.145 157.82 114.145 160.129 114.176 162.438C114.192 163.537 113.67 163.921 112.637 163.909C110.645 163.883 108.65 163.946 106.657 163.89C105.483 163.858 104.939 164.227 104.942 165.495C104.974 174.784 104.974 184.071 104.942 193.357C104.942 194.594 105.43 195.013 106.629 195.001C110.459 194.963 114.286 194.975 118.117 195.001C119.376 195.001 120.634 195.205 121.878 195.249C122.822 195.284 123.388 195.671 123.879 196.49C127.216 202.138 131.186 207.387 135.713 212.135C139.291 215.847 143.355 218.993 147.481 222.063C147.817 222.311 148.154 222.563 148.481 222.821C148.724 223.014 149.089 223.19 148.994 223.542C148.881 223.974 148.437 223.946 148.075 223.971C147.761 223.993 147.446 223.99 147.131 223.99C102.232 223.99 57.3366 224.197 12.4283 223.99C8.35888 223.968 4.9913 222.614 2.2878 219.515C0.20746 217.17 0.172841 214.311 0.147662 211.502C0.0438026 199.538 0.0186245 187.573 0.00918273 175.609C-0.00970086 154.463 -0.0128481 133.318 -0.000259062 112.174H0.122484ZM79.4336 58.3841H133.567C135.722 58.3841 135.77 58.3274 135.77 56.1801C135.77 47.8364 135.77 39.4947 135.77 31.1552C135.77 27.9374 135.77 27.9342 132.578 27.9342H53.3018C44.0699 27.9342 34.8379 27.9342 25.6059 27.9342C23.3273 27.9342 23.1888 28.1043 23.1888 30.324C23.1888 38.9301 23.1888 47.5362 23.1888 56.1423C23.1888 58.3778 23.1888 58.3841 25.48 58.3841H79.4336ZM38.9692 154.019C43.6334 154.019 48.3008 153.978 52.9651 154.044C54.3625 154.063 54.9132 153.669 54.9038 152.183C54.8513 143.059 54.8513 133.934 54.9038 124.81C54.9038 123.361 54.4128 122.92 52.9871 122.92C43.6544 122.967 34.3238 122.967 24.9953 122.92C23.642 122.92 23.1636 123.327 23.1731 124.718C23.2192 133.897 23.2192 143.075 23.1731 152.252C23.1731 153.635 23.6042 154.076 24.9796 154.053C29.6375 153.965 34.3049 154.019 38.9692 154.019ZM79.5091 154.019C84.23 154.019 88.9509 153.978 93.6718 154.044C95.066 154.066 95.4752 153.575 95.4689 152.218C95.4227 143.093 95.4227 133.962 95.4689 124.825C95.4689 123.421 95.0723 122.889 93.5994 122.895C84.2688 122.948 74.9372 122.948 65.6045 122.895C64.1379 122.895 63.7161 123.402 63.7161 124.819C63.7623 133.944 63.7623 143.069 63.7161 152.196C63.7161 153.547 64.1095 154.05 65.5101 154.028C70.1838 153.965 74.8449 154.019 79.5091 154.019ZM39.0699 163.905C34.349 163.905 29.6281 163.937 24.9072 163.883C23.6483 163.883 23.1542 164.255 23.1605 165.584C23.2045 174.819 23.2045 184.049 23.1605 193.272C23.1605 194.572 23.5791 195.013 24.8789 195.007C34.264 194.965 43.6471 194.965 53.028 195.007C54.3593 195.007 54.8943 194.62 54.8881 193.215C54.844 184.04 54.844 174.863 54.8881 165.684C54.8881 164.299 54.4097 163.864 53.0532 163.883C48.4015 163.943 43.7467 163.905 39.0699 163.905ZM79.6979 163.905C74.9267 163.905 70.1586 163.934 65.3873 163.886C64.1725 163.886 63.7224 164.289 63.7256 165.527C63.7612 174.809 63.7612 184.092 63.7256 193.376C63.7256 194.635 64.2165 195.004 65.4094 195.001C74.8512 194.971 84.2877 194.971 93.719 195.001C95.0062 195.001 95.4626 194.576 95.4594 193.272C95.4196 184.036 95.4196 174.8 95.4594 165.565C95.4594 164.23 94.959 163.852 93.697 163.868C89.0296 163.937 84.3653 163.905 79.6979 163.905ZM38.9629 112.854C43.5789 112.854 48.1949 112.854 52.8109 112.854C54.7905 112.854 54.8881 112.76 54.8912 110.842C54.8912 101.878 54.866 92.9145 54.9195 83.9505C54.9195 82.436 54.416 81.9574 52.921 81.9669C43.6471 82.0173 34.3731 82.0173 25.0992 81.9669C23.6987 81.9669 23.1699 82.3542 23.1794 83.8371C23.2402 92.9092 23.2402 101.978 23.1794 111.044C23.1794 112.407 23.6042 112.895 24.9827 112.876C29.6344 112.813 34.3049 112.851 38.9629 112.854ZM79.5343 81.9984C74.9708 81.9984 70.4083 81.9984 65.8468 81.9984C63.7854 81.9984 63.735 82.0425 63.7539 84.13C63.8452 93.1003 63.9742 102.077 64.0183 111.038C64.0183 112.483 64.6068 112.788 65.9066 112.788C75.0841 112.788 84.2625 112.819 93.4421 112.88C94.9024 112.88 95.4815 112.492 95.4689 110.934C95.4122 101.908 95.4122 92.8819 95.4689 83.856C95.4689 82.3825 94.9527 81.9512 93.5428 81.9669C88.8722 82.0267 84.2048 81.9889 79.5343 81.9889V81.9984Z" fill="#FFFAFA"/>
<path d="M251.989 159.875C252.469 166.699 251.528 173.549 249.226 179.991C246.451 187.989 242.143 195.369 236.542 201.716C230.397 208.723 222.762 214.264 214.197 217.935C207.37 220.857 200.317 223.004 192.739 222.743C188.761 222.607 184.773 222.9 180.779 222.551C175.284 222.063 170.097 220.41 165.043 218.313C157.067 215.018 149.86 210.107 143.874 203.889C134.817 194.509 128.705 183.398 126.819 170.514C123.987 151.276 128.339 133.754 141.262 118.752C149.268 109.339 159.869 102.496 171.74 99.0761C179.07 96.9162 186.532 96.5352 194.143 97.0106C202.963 97.5388 211.556 100.019 219.302 104.271C230.512 110.376 239.089 119.139 245.065 130.439C247.771 135.655 249.844 141.176 251.24 146.884C252.348 151.185 251.863 155.539 251.989 159.875ZM236.502 159.979C236.354 157.183 236.64 154.39 236.221 151.632C235.447 146.541 233.546 141.837 231.082 137.35C226.934 129.794 221.272 123.654 213.882 119.18C207.509 115.323 200.736 112.99 193.132 112.716C185.809 112.448 178.715 112.716 171.841 115.549C163.608 118.944 156.608 123.966 151.292 131.119C145.977 138.273 142.571 146.226 141.961 155.281C141.467 162.545 141.769 169.699 144.56 176.481C150.578 191.107 161.14 200.875 176.247 205.784C180.339 207.107 184.531 206.997 188.698 207.116C191.987 207.211 195.332 207.283 198.574 206.644C205.251 205.377 211.542 202.575 216.951 198.458C229.54 188.773 236.958 176.339 236.502 159.979Z" fill="#FFFAFA"/>
<path d="M191.625 198.505C190.476 198.417 189.327 198.262 188.163 198.256C186.948 198.256 186.46 197.661 186.441 196.524C186.413 194.897 186.372 193.272 186.337 191.647C186.312 190.454 185.934 189.72 184.524 189.632C180.911 189.412 177.326 188.943 173.855 187.828C173.257 187.636 172.647 187.475 172.058 187.252C170.132 186.525 169.666 185.804 170.081 183.766C170.428 182.072 170.883 180.402 171.444 178.767C172.108 176.83 172.37 176.726 174.337 177.239C177.877 178.225 181.547 178.663 185.22 178.54C187.659 178.423 190.152 178.382 192.386 177.085C195.373 175.353 196.103 170.297 193.683 167.8C191.993 166.059 189.764 165.215 187.627 164.223C184.165 162.614 180.65 161.144 177.339 159.186C171.699 155.832 170.286 148.748 171.476 143.443C173.049 136.396 177.333 132.01 184.521 130.666C185.645 130.455 186.142 129.945 186.095 128.777C186.022 127.047 186.127 125.315 186.409 123.607C186.671 122.083 187.458 121.299 189.06 121.308C194.177 121.333 193.582 120.927 193.711 125.694C193.818 129.753 193.787 129.787 197.768 130.518C199.835 130.861 201.876 131.345 203.877 131.966C206.08 132.681 206.473 133.304 206.045 135.533C205.688 137.279 205.205 138.996 204.601 140.672C204.107 142.092 203.37 142.328 202.114 141.802C198.766 140.398 195.216 140.115 191.647 140.011C190.652 140.005 189.66 140.099 188.685 140.291C185.925 140.779 184.446 142.07 184.024 144.274C183.523 146.887 184.442 148.899 186.919 150.335C190.463 152.391 194.249 153.953 197.954 155.687C199.844 156.49 201.641 157.496 203.313 158.688C206.596 161.191 208.242 164.541 208.522 168.653C208.837 173.445 208.207 177.945 205.271 181.94C203.156 184.809 200.235 186.474 197.054 187.775C194.114 188.974 194.108 188.955 194.06 192.072C194.038 193.54 194.06 195.01 193.947 196.48C193.802 198.442 193.629 198.555 191.625 198.505Z" fill="#FFFAFA"/>
</svg>
