<svg width="512" height="512" viewBox="0 0 512 512" fill="none" xmlns="http://www.w3.org/2000/svg">
<g clip-path="url(#clip0_3584_15)">
<path d="M381.213 100L290 8.784V100H381.213Z" fill="white"/>
<path d="M242 276C242 267.716 248.716 261 257 261H390V130H275C266.716 130 260 123.284 260 115V0H55C24.673 0 0 24.673 0 55V457C0 487.327 24.673 512 55 512H335C365.327 512 390 487.327 390 457V291H257C248.716 291 242 284.284 242 276ZM75 171H245C253.284 171 260 177.716 260 186C260 194.284 253.284 201 245 201H75C66.716 201 60 194.284 60 186C60 177.716 66.716 171 75 171ZM75 231H205C213.284 231 220 237.716 220 246C220 254.284 213.284 261 205 261H75C66.716 261 60 254.284 60 246C60 237.716 66.716 231 75 231ZM75 291H205C213.284 291 220 297.716 220 306C220 314.284 213.284 321 205 321H75C66.716 321 60 314.284 60 306C60 297.716 66.716 291 75 291ZM245 381H75C66.716 381 60 374.284 60 366C60 357.716 66.716 351 75 351H245C253.284 351 260 357.716 260 366C260 374.284 253.284 381 245 381ZM507.606 265.394L447.606 205.394C441.749 199.536 432.251 199.536 426.393 205.394C420.535 211.252 420.535 220.749 426.393 226.607L460.787 261H390V291H460.787L426.393 325.394C420.535 331.252 420.535 340.749 426.393 346.607C429.322 349.536 433.161 351 437 351C440.839 351 444.678 349.536 447.606 346.606L507.606 286.606C513.465 280.749 513.465 271.252 507.606 265.394Z" fill="white"/>
</g>
<defs>
<clipPath id="clip0_3584_15">
<rect width="512" height="512" fill="white"/>
</clipPath>
</defs>
</svg>
