<svg width="512" height="390" viewBox="0 0 512 390" fill="none" xmlns="http://www.w3.org/2000/svg">
<path d="M30 135C30 110.187 50.187 90 75 90H335C359.813 90 380 110.187 380 135V150H410V100C410 77.944 392.056 60 370 60H190V40C190 17.944 172.056 0 150 0H40C17.944 0 0 17.944 0 40V314.069L30 266.037V135Z" fill="white"/>
<path d="M335 120H75C66.716 120 60 126.716 60 135V218.004L89.257 171.161C97.535 157.91 111.803 150 127.424 150H350V135C350 126.716 343.284 120 335 120Z" fill="white"/>
<path d="M395.025 390H15.0251C12.3482 389.999 9.72029 389.282 7.41397 387.923C5.10766 386.564 3.20694 384.613 1.90898 382.272C0.61101 379.93 -0.0369279 377.285 0.0323734 374.609C0.101675 371.933 0.885691 369.324 2.3031 367.053L114.727 187.053C116.075 184.894 117.95 183.114 120.176 181.88C122.402 180.646 124.905 179.999 127.45 179.999H476.993C483.315 179.994 489.519 181.704 494.946 184.946C500.373 188.188 504.819 192.841 507.811 198.41C510.812 203.974 512.247 210.248 511.965 216.564C511.682 222.879 509.692 229 506.207 234.274L407.533 383.281C406.165 385.347 404.307 387.042 402.124 388.214C399.942 389.386 397.503 390 395.025 390Z" fill="white"/>
</svg>
