<svg width="460" height="512" viewBox="0 0 460 512" fill="none" xmlns="http://www.w3.org/2000/svg">
<path d="M150.577 161.814L171.577 198.187C175.719 205.361 184.893 207.82 192.067 203.677L206.008 195.628C212.975 201.07 220.684 205.587 229 208.956V225C229 233.284 235.716 240 244 240H286C294.284 240 301 233.284 301 225V208.956C309.317 205.587 317.025 201.07 323.992 195.628L337.933 203.677C345.108 207.819 354.281 205.361 358.423 198.187L379.423 161.814C383.565 154.64 381.107 145.466 373.932 141.324L359.977 133.267C360.58 128.919 361 124.513 361 120C361 115.487 360.58 111.081 359.978 106.734L373.933 98.677C381.108 94.535 383.566 85.361 379.424 78.187L358.424 41.814C354.282 34.64 345.108 32.181 337.934 36.324L323.993 44.373C317.026 38.931 309.317 34.414 301.001 31.045V15C301.001 6.716 294.285 0 286.001 0H244.001C235.717 0 229.001 6.716 229.001 15V31.044C220.684 34.413 212.976 38.93 206.009 44.372L192.068 36.323C184.894 32.181 175.72 34.639 171.578 41.813L150.578 78.186C146.436 85.36 148.894 94.534 156.069 98.676L170.024 106.733C169.42 111.081 169 115.487 169 120C169 124.513 169.42 128.919 170.022 133.266L156.067 141.323C148.893 145.465 146.435 154.639 150.577 161.814ZM265 69C293.121 69 316 91.879 316 120C316 148.121 293.121 171 265 171C236.879 171 214 148.121 214 120C214 91.879 236.879 69 265 69Z" fill="white"/>
<path d="M265 141C276.598 141 286 131.598 286 120C286 108.402 276.598 99 265 99C253.402 99 244 108.402 244 120C244 131.598 253.402 141 265 141Z" fill="white"/>
<path d="M69.552 63.362C68.7407 60.1167 66.8678 57.2357 64.2311 55.177C61.5944 53.1183 58.3452 52 55 52H15C6.716 52 0 58.716 0 67C0 75.284 6.716 82 15 82H43.288L58.288 142H89.212L69.552 63.362ZM414.545 370.638L459.545 190.638C461.912 181.171 454.751 172 444.993 172H408.183L384.403 213.187C376.392 227.066 361.453 235.69 345.421 235.69H345.417C340.257 235.687 335.135 234.797 330.277 233.058C326.469 254.038 308.062 270 286 270H244C221.937 270 203.532 254.038 199.723 233.058C194.864 234.797 189.742 235.688 184.581 235.69C168.547 235.69 153.609 227.067 145.596 213.186L121.817 172H65.788L132.948 440.638C133.759 443.883 135.632 446.764 138.269 448.823C140.906 450.882 144.155 452 147.5 452H176C171.121 458.485 168.488 466.384 168.5 474.5C168.5 495.211 185.289 512 206 512C226.711 512 243.5 495.211 243.5 474.5C243.513 466.384 240.88 458.485 236 452H336C331.121 458.485 328.488 466.384 328.5 474.5C328.5 495.211 345.289 512 366 512C386.711 512 403.5 495.211 403.5 474.5C403.513 466.384 400.88 458.485 396 452H425C433.284 452 440 445.284 440 437C440 428.716 433.284 422 425 422H159.212L149.212 382H399.993C403.338 382 406.587 380.882 409.224 378.823C411.861 376.764 413.734 373.883 414.545 370.638Z" fill="white"/>
</svg>
