<svg width="200" height="200" viewBox="0 0 200 200" fill="none" xmlns="http://www.w3.org/2000/svg">
<path d="M189.25 0.833374H129.75C127.12 0.833374 124.598 1.87816 122.738 3.7379C120.878 5.59763 119.833 8.11998 119.833 10.75C119.833 13.3801 120.878 15.9024 122.738 17.7622C124.598 19.6219 127.12 20.6667 129.75 20.6667H165.311L83.0724 102.906C82.1252 103.82 81.3697 104.915 80.85 106.125C80.3303 107.334 80.0567 108.636 80.0453 109.952C80.0339 111.269 80.2848 112.575 80.7834 113.794C81.282 115.012 82.0184 116.12 82.9495 117.051C83.8806 117.982 84.9878 118.718 86.2065 119.217C87.4252 119.715 88.731 119.966 90.0478 119.955C91.3645 119.943 92.6658 119.67 93.8756 119.15C95.0855 118.63 96.1798 117.875 97.0945 116.928L179.333 34.6889V70.25C179.333 72.8801 180.378 75.4024 182.238 77.2622C184.098 79.1219 186.62 80.1667 189.25 80.1667C191.88 80.1667 194.403 79.1219 196.262 77.2622C198.122 75.4024 199.167 72.8801 199.167 70.25V10.75C199.167 8.11998 198.122 5.59763 196.262 3.7379C194.403 1.87816 191.88 0.833374 189.25 0.833374Z" fill="white"/>
<path d="M169.417 85.9978C166.787 85.9978 164.265 87.0425 162.405 88.9023C160.545 90.762 159.501 93.2844 159.501 95.9144V166.947C159.498 170.232 158.192 173.381 155.87 175.703C153.548 178.025 150.399 179.331 147.115 179.333H33.0532C29.7691 179.331 26.6202 178.025 24.298 175.703C21.9757 173.381 20.6699 170.232 20.6673 166.947V52.886C20.6699 49.6019 21.9757 46.453 24.298 44.1307C26.6202 41.8085 29.7691 40.5027 33.0532 40.5001H94.7547C97.3848 40.5001 99.9071 39.4553 101.767 37.5956C103.627 35.7358 104.671 33.2135 104.671 30.5834C104.671 27.9534 103.627 25.431 101.767 23.5713C99.9071 21.7115 97.3848 20.6667 94.7547 20.6667H33.0532C24.5114 20.6772 16.3224 24.0751 10.2824 30.1151C4.24237 36.1552 0.844481 44.3441 0.833984 52.886V166.928C0.839232 175.473 4.2348 183.667 10.2754 189.711C16.316 195.756 24.5079 199.156 33.0532 199.167H147.095C155.64 199.162 163.834 195.766 169.879 189.725C175.923 183.685 179.323 175.493 179.334 166.947V95.9144C179.334 93.2844 178.289 90.762 176.429 88.9023C174.57 87.0425 172.047 85.9978 169.417 85.9978Z" fill="white"/>
</svg>
