<svg width="45" height="45" viewBox="0 0 45 45" fill="none" xmlns="http://www.w3.org/2000/svg">
<path d="M43.4997 40.638V23.9999H44.2497C44.391 24 44.5295 23.9601 44.6492 23.8849C44.7688 23.8097 44.8648 23.7022 44.926 23.5748C44.9872 23.4474 45.0112 23.3054 44.9952 23.1649C44.9792 23.0245 44.9238 22.8915 44.8355 22.7812L39.2855 15.8436C39.0752 15.5798 38.8079 15.367 38.5038 15.2209C38.1997 15.0748 37.8665 14.9992 37.5291 14.9999H32.2499V11.5604L32.4696 11.7801C32.6111 11.9167 32.8005 11.9923 32.9972 11.9906C33.1938 11.9889 33.3819 11.9101 33.521 11.771C33.66 11.6319 33.7389 11.4438 33.7406 11.2472C33.7423 11.0505 33.6667 10.8611 33.5301 10.7196L23.0302 0.219591C22.8896 0.0789868 22.6989 0 22.5 0C22.3011 0 22.1104 0.0789868 21.9698 0.219591L11.4699 10.7196C11.3333 10.8611 11.2577 11.0505 11.2594 11.2472C11.2611 11.4438 11.34 11.6319 11.479 11.771C11.6181 11.9101 11.8062 11.9889 12.0028 11.9906C12.1995 11.9923 12.3889 11.9167 12.5304 11.7801L12.7501 11.5604V14.9999H7.47094C7.13345 14.9992 6.80018 15.0748 6.49602 15.221C6.19186 15.3673 5.92468 15.5804 5.71446 15.8444L0.16453 22.7812C0.0762036 22.8915 0.0208442 23.0245 0.00483076 23.1649C-0.0111827 23.3054 0.0128015 23.4474 0.0740196 23.5748C0.135238 23.7022 0.231198 23.8097 0.350844 23.8849C0.470489 23.9601 0.608951 24 0.750272 23.9999H1.50026V40.638C1.00026 40.8141 0.578716 41.1615 0.310299 41.6186C0.0418816 42.0758 -0.0560884 42.6132 0.033741 43.1356C0.12357 43.6581 0.395402 44.1319 0.80109 44.4731C1.20678 44.8144 1.72014 45.001 2.25025 45H42.7497C43.2799 45.001 43.7932 44.8144 44.1989 44.4731C44.6046 44.1319 44.8764 43.6581 44.9663 43.1356C45.0561 42.6132 44.9581 42.0758 44.6897 41.6186C44.4213 41.1615 43.9997 40.8141 43.4997 40.638ZM29.2499 29.9999H23.25V26.9999H26.9999C27.5967 26.9999 28.169 27.237 28.5909 27.6589C29.0129 28.0809 29.2499 28.6532 29.2499 29.2499V29.9999ZM21.75 29.9999H15.7501V29.2499C15.7501 28.6532 15.9871 28.0809 16.4091 27.6589C16.831 27.237 17.4033 26.9999 18.0001 26.9999H21.75V29.9999ZM15.7501 31.4999H21.75V40.5H15.7501V31.4999ZM23.25 31.4999H29.2499V40.5H23.25V31.4999ZM30.7499 30.7499V29.2499C30.7487 28.2557 30.3532 27.3026 29.6502 26.5996C28.9473 25.8966 27.9941 25.5011 26.9999 25.4999H18.0001C17.0059 25.5011 16.0527 25.8966 15.3498 26.5996C14.6468 27.3026 14.2513 28.2557 14.2501 29.2499V40.5H3.00024V23.9999H41.9998V40.5H30.7499V30.7499ZM37.5291 16.4999C37.6415 16.4999 37.7526 16.5251 37.854 16.5738C37.9554 16.6225 38.0445 16.6933 38.1148 16.7811L42.6897 22.4999H32.2499V16.4999H37.5291ZM22.5 1.81035L30.7499 10.0604V22.4999H14.2501V10.0604L22.5 1.81035ZM6.8852 16.7819C6.95542 16.694 7.04453 16.623 7.14592 16.5741C7.24732 16.5253 7.3584 16.4999 7.47094 16.4999H12.7501V22.4999H2.31025L6.8852 16.7819ZM42.7497 43.5H2.25025C2.05134 43.5 1.86058 43.421 1.71993 43.2803C1.57928 43.1397 1.50026 42.9489 1.50026 42.75C1.50026 42.5511 1.57928 42.3603 1.71993 42.2197C1.86058 42.079 2.05134 42 2.25025 42H42.7497C42.9487 42 43.1394 42.079 43.2801 42.2197C43.4207 42.3603 43.4997 42.5511 43.4997 42.75C43.4997 42.9489 43.4207 43.1397 43.2801 43.2803C43.1394 43.421 42.9487 43.5 42.7497 43.5Z" fill="#0676BC"/>
<path d="M22.4999 21C23.8349 21 25.1399 20.6042 26.25 19.8625C27.36 19.1208 28.2251 18.0666 28.736 16.8331C29.2469 15.5997 29.3806 14.2425 29.1201 12.9332C28.8597 11.6238 28.2168 10.421 27.2728 9.47704C26.3288 8.53303 25.1261 7.89015 23.8168 7.6297C22.5074 7.36925 21.1502 7.50292 19.9168 8.01382C18.6834 8.52471 17.6293 9.38988 16.8876 10.4999C16.1459 11.6099 15.75 12.915 15.75 14.25C15.7522 16.0396 16.464 17.7552 17.7294 19.0206C18.9948 20.286 20.7104 20.9979 22.4999 21ZM22.4999 9.00001C23.5383 9.00001 24.5533 9.30792 25.4166 9.8848C26.28 10.4617 26.9529 11.2816 27.3502 12.2409C27.7476 13.2002 27.8515 14.2559 27.649 15.2743C27.4464 16.2927 26.9464 17.2281 26.2122 17.9623C25.478 18.6966 24.5425 19.1966 23.5241 19.3992C22.5057 19.6017 21.4502 19.4978 20.4909 19.1004C19.5316 18.703 18.7116 18.0301 18.1348 17.1668C17.5579 16.3034 17.25 15.2884 17.25 14.25C17.2516 12.8581 17.8052 11.5237 18.7894 10.5395C19.7736 9.55523 21.108 9.0016 22.4999 9.00001Z" fill="#0676BC"/>
<path d="M23.4695 16.2803C23.611 16.4169 23.8004 16.4925 23.9971 16.4908C24.1937 16.4891 24.3818 16.4102 24.5209 16.2711C24.6599 16.1321 24.7388 15.944 24.7405 15.7473C24.7422 15.5507 24.6666 15.3612 24.53 15.2198L23.2498 13.9395V12C23.2498 11.8011 23.1708 11.6103 23.0301 11.4697C22.8895 11.329 22.6987 11.25 22.4998 11.25C22.3009 11.25 22.1101 11.329 21.9695 11.4697C21.8288 11.6103 21.7498 11.8011 21.7498 12V14.25C21.7498 14.4489 21.8289 14.6396 21.9695 14.7803L23.4695 16.2803ZM8.99996 25.5001C8.20432 25.5001 7.44127 25.8161 6.87867 26.3787C6.31607 26.9413 6 27.7044 6 28.5001V36.0001C6 36.3979 6.15803 36.7794 6.43933 37.0608C6.72064 37.3421 7.10216 37.5001 7.49998 37.5001H10.4999C10.8978 37.5001 11.2793 37.3421 11.5606 37.0608C11.8419 36.7794 11.9999 36.3979 11.9999 36.0001V28.5001C11.9999 27.7044 11.6839 26.9413 11.1213 26.3787C10.5587 25.8161 9.7956 25.5001 8.99996 25.5001ZM8.99996 27.0001C9.39778 27.0001 9.77931 27.1581 10.0606 27.4394C10.3419 27.7207 10.4999 28.1022 10.4999 28.5001V30.0001H7.49998V28.5001C7.49998 28.1022 7.65801 27.7207 7.93932 27.4394C8.22062 27.1581 8.60214 27.0001 8.99996 27.0001ZM7.49998 36.0001V31.5001H10.4999V36.0001H7.49998ZM35.9996 25.5001C35.204 25.5001 34.4409 25.8161 33.8783 26.3787C33.3157 26.9413 32.9997 27.7044 32.9997 28.5001V36.0001C32.9997 36.3979 33.1577 36.7794 33.439 37.0608C33.7203 37.3421 34.1018 37.5001 34.4996 37.5001H37.4996C37.8974 37.5001 38.2789 37.3421 38.5602 37.0608C38.8416 36.7794 38.9996 36.3979 38.9996 36.0001V28.5001C38.9996 27.7044 38.6835 26.9413 38.1209 26.3787C37.5583 25.8161 36.7953 25.5001 35.9996 25.5001ZM35.9996 27.0001C36.3974 27.0001 36.779 27.1581 37.0603 27.4394C37.3416 27.7207 37.4996 28.1022 37.4996 28.5001V30.0001H34.4996V28.5001C34.4996 28.1022 34.6577 27.7207 34.939 27.4394C35.2203 27.1581 35.6018 27.0001 35.9996 27.0001ZM34.4996 36.0001V31.5001H37.4996V36.0001H34.4996Z" fill="#0676BC"/>
</svg>
