<svg width="182" height="212" viewBox="0 0 182 212" fill="none" xmlns="http://www.w3.org/2000/svg">
<path fill-rule="evenodd" clip-rule="evenodd" d="M91.0007 68.2505C66.0107 68.2505 45.6484 88.6127 45.6484 113.603C45.6484 138.593 66.0107 158.955 91.0007 158.955C115.991 158.955 136.353 138.593 136.353 113.603C136.353 88.6127 115.991 68.2505 91.0007 68.2505ZM107.859 119.751C110.834 122.726 110.834 127.486 107.859 130.461C104.884 133.436 100.124 133.436 97.149 130.461L91.0007 124.313L84.8523 130.461C81.8773 133.436 77.1173 133.436 74.1423 130.461C71.1673 127.486 71.1673 122.726 74.1423 119.751L80.2907 113.603L74.1423 107.454C71.1673 104.479 71.1673 99.7194 74.1423 96.7444C77.1173 93.7694 81.8773 93.7694 84.8523 96.7444L91.0007 102.893L97.149 96.7444C100.124 93.7694 104.884 93.7694 107.859 96.7444C110.834 99.7194 110.834 104.479 107.859 107.454L101.711 113.603L107.859 119.751Z" fill="white"/>
<path fill-rule="evenodd" clip-rule="evenodd" d="M166.565 0.222168H44.3914C40.3586 0.222168 36.5241 1.80884 33.6814 4.65161L4.79081 33.5422C1.94803 36.3849 0.361364 40.2194 0.361364 44.2522V196.638C0.357006 198.628 0.745624 200.598 1.50491 202.437C2.26419 204.276 3.37919 205.947 4.78589 207.353C6.19258 208.76 7.86327 209.875 9.70204 210.634C11.5408 211.393 13.5114 211.782 15.5008 211.778H166.565C168.554 211.782 170.525 211.393 172.363 210.634C174.202 209.875 175.873 208.76 177.28 207.353C178.686 205.947 179.801 204.276 180.561 202.437C181.32 200.598 181.708 198.628 181.704 196.638V15.3616C181.704 11.3464 180.109 7.49561 177.27 4.65641C174.431 1.81721 170.58 0.222168 166.565 0.222168ZM90.9997 174.028C57.6797 174.028 30.5741 146.923 30.5741 113.603C30.5741 80.2827 57.6797 53.1772 90.9997 53.1772C124.32 53.1772 151.425 80.2827 151.425 113.603C151.425 146.923 124.32 174.028 90.9997 174.028Z" fill="white"/>
</svg>
