<svg width="45" height="45" viewBox="0 0 45 45" fill="none" xmlns="http://www.w3.org/2000/svg">
<path d="M22.05 0C9.8505 0 0 9.8505 0 22.05C0 34.2495 9.8505 44.1 22.05 44.1C34.2495 44.1 44.1 34.2495 44.1 22.05C44.1 9.8505 34.2495 0 22.05 0ZM22.05 42.6285C10.7325 42.6285 1.4715 33.3675 1.4715 22.05C1.4715 10.7325 10.7325 1.4715 22.05 1.4715C33.3675 1.4715 42.6285 10.7325 42.6285 22.05C42.6285 33.3675 33.3675 42.6285 22.05 42.6285Z" fill="#0676BC"/>
<path d="M8.82031 22.7835C8.82031 24.408 10.1388 25.722 11.7588 25.722C13.3833 25.722 14.6973 24.4035 14.6973 22.7835C14.6973 21.159 13.3788 19.845 11.7588 19.845C10.1388 19.845 8.82031 21.1635 8.82031 22.7835Z" fill="#0676BC"/>
<path d="M19.1113 22.7835C19.1113 24.408 20.4298 25.722 22.0498 25.722C23.6743 25.722 24.9883 24.4035 24.9883 22.7835C24.9883 21.159 23.6698 19.845 22.0498 19.845C20.4253 19.845 19.1113 21.1635 19.1113 22.7835Z" fill="#0676BC"/>
<path d="M29.3984 22.7835C29.3984 24.408 30.7169 25.722 32.3369 25.722C33.9614 25.722 35.2754 24.4035 35.2754 22.7835C35.2754 21.159 33.9569 19.845 32.3369 19.845C30.7169 19.845 29.3984 21.1635 29.3984 22.7835Z" fill="#0676BC"/>
</svg>
