<svg width="238" height="128" viewBox="0 0 238 128" fill="none" xmlns="http://www.w3.org/2000/svg">
<path d="M201.934 61.0184C201.57 61.0159 201.211 60.9398 200.879 60.7946L151.886 40.7387C151.355 40.5224 150.904 40.1492 150.591 39.6691C150.278 39.1891 150.119 38.6249 150.136 38.0522C150.152 37.4795 150.343 36.9255 150.683 36.4642C151.023 36.0029 151.496 35.6564 152.038 35.471L201.054 18.8284C201.477 18.6893 201.927 18.6525 202.367 18.7211C202.807 18.7898 203.225 18.9619 203.585 19.2233C203.946 19.4847 204.239 19.828 204.441 20.2249C204.643 20.6218 204.748 21.0609 204.747 21.5063V58.1887C204.747 59.1239 204.3 60.0272 203.5 60.5308C203.041 60.8508 202.494 61.0211 201.934 61.0184Z" fill="white"/>
<path d="M23.6774 79.8112C28.3956 79.8122 33.0058 81.2238 36.9157 83.8646C40.8257 86.5054 43.8568 90.2548 45.6197 94.6313H96.7465C98.5036 90.2605 101.527 86.5145 105.428 83.8739C109.329 81.2333 113.93 79.8185 118.641 79.8112C128.585 79.8112 137.106 85.9743 140.575 94.6313H192.373C193.804 91.0671 196.084 87.9067 199.015 85.4254C201.947 82.944 205.44 81.217 209.192 80.3948V16.7341C207.864 16.0168 206.753 14.9573 205.973 13.6656C205.192 12.3739 204.772 10.897 204.755 9.38806C204.755 7.11964 205.656 4.94412 207.26 3.3401C208.864 1.73609 211.04 0.834961 213.308 0.834961C215.577 0.834961 217.752 1.73609 219.356 3.3401C220.96 4.94412 221.862 7.11964 221.862 9.38806C221.862 12.4896 220.127 15.0795 217.665 16.5823V80.123C223.299 80.9193 228.456 83.7203 232.191 88.012C235.927 92.3038 237.989 97.7985 238.001 103.488C237.989 108.977 236.071 114.291 232.574 118.523C229.078 122.754 224.221 125.64 218.833 126.686C213.445 127.733 207.86 126.876 203.034 124.262C198.208 121.647 194.44 117.438 192.373 112.353H140.583C138.821 116.722 135.793 120.465 131.889 123.101C127.984 125.737 123.38 127.145 118.669 127.145C113.958 127.145 109.354 125.737 105.449 123.101C101.544 120.465 98.5164 116.722 96.7545 112.353H45.6277C44.019 116.337 41.3563 119.809 37.9252 122.395C34.494 124.981 30.4238 126.585 26.1506 127.035C21.8774 127.485 17.5624 126.763 13.6681 124.947C9.77373 123.132 6.4469 120.291 4.04413 116.728C1.64135 113.166 0.253218 109.017 0.0285017 104.726C-0.196215 100.436 0.75096 96.1643 2.76851 92.3707C4.78605 88.577 7.79791 85.4039 11.4813 83.1914C15.1646 80.9789 19.3806 79.8104 23.6774 79.8112Z" fill="white"/>
</svg>
