<svg width="238" height="238" viewBox="0 0 238 238" fill="none" xmlns="http://www.w3.org/2000/svg">
<path d="M231.738 87.6835C235.196 87.6835 237.999 84.8809 237.999 81.4219C237.999 77.9629 235.197 75.158 231.738 75.158H219.21V50.1045H231.738C235.196 50.1045 237.999 47.3019 237.999 43.8429C237.999 40.3839 235.197 37.579 231.738 37.579H219.21V25.0534C219.211 24.2309 219.049 23.4162 218.735 22.6561C218.42 21.896 217.959 21.2054 217.377 20.6236C216.796 20.0419 216.105 19.5804 215.345 19.2657C214.585 18.951 213.771 18.7892 212.948 18.7895H200.42V6.26395C200.42 2.80551 197.618 0 194.159 0C190.7 0 187.895 2.80492 187.895 6.26395V18.7895H162.841V6.26395C162.841 2.80551 160.039 0 156.58 0C153.121 0 150.316 2.80492 150.316 6.26395V18.7895H125.262V6.26395C125.262 2.80551 122.46 0 119.001 0C115.542 0 112.737 2.80492 112.737 6.26395V18.7895H87.6835V6.26395C87.6835 2.80551 84.8809 0 81.4219 0C77.9629 0 75.158 2.80492 75.158 6.26395V18.7895H50.1045V6.26395C50.1045 2.80551 47.3019 0 43.8429 0C40.3839 0 37.579 2.80492 37.579 6.26395V18.7895H25.0534C23.3918 18.7889 21.7979 19.448 20.622 20.622C19.448 21.7979 18.7889 23.3918 18.7895 25.0534V37.579H6.26395C2.80551 37.579 0 40.3839 0 43.8429C0 47.3019 2.80492 50.1045 6.26395 50.1045H18.7895V75.158H6.26395C2.80551 75.158 0 77.9629 0 81.4219C0 84.8809 2.80492 87.6835 6.26395 87.6835H18.7895V112.737H6.26395C2.80551 112.737 0 115.542 0 119.001C0 122.46 2.80492 125.262 6.26395 125.262H18.7895V150.316H6.26395C2.80551 150.316 0 153.121 0 156.58C0 160.039 2.80492 162.841 6.26395 162.841H18.7895V187.895H6.26395C2.80551 187.895 0 190.7 0 194.159C0 197.618 2.80492 200.42 6.26395 200.42H18.7895V212.948C18.7895 214.609 19.4477 216.203 20.622 217.377C21.204 217.959 21.8949 218.42 22.6553 218.735C23.4157 219.049 24.2306 219.211 25.0534 219.21H37.579V231.738C37.579 235.196 40.3839 237.999 43.8429 237.999C47.3019 237.999 50.1045 235.197 50.1045 231.738V219.21H75.158V231.738C75.158 235.196 77.9629 237.999 81.4219 237.999C84.8809 237.999 87.6835 235.197 87.6835 231.738V219.21H112.737V231.738C112.737 235.196 115.542 237.999 119.001 237.999C122.46 237.999 125.262 235.197 125.262 231.738V219.21H150.316V231.738C150.316 235.196 153.121 237.999 156.58 237.999C160.039 237.999 162.841 235.197 162.841 231.738V219.21H187.895V231.738C187.895 235.196 190.7 237.999 194.159 237.999C197.618 237.999 200.42 235.197 200.42 231.738V219.21H212.948C214.609 219.212 216.203 218.552 217.377 217.377C218.552 216.203 219.212 214.609 219.21 212.948V200.42H231.738C235.196 200.42 237.999 197.618 237.999 194.159C237.999 190.7 235.197 187.895 231.738 187.895H219.21V162.841H231.738C235.196 162.841 237.999 160.039 237.999 156.58C237.999 153.121 235.197 150.316 231.738 150.316H219.21V125.262H231.738C235.196 125.262 237.999 122.46 237.999 119.001C237.999 115.542 235.197 112.737 231.738 112.737H219.21V87.6835H231.738ZM43.8429 187.895V50.1045C43.8421 49.282 44.0035 48.4675 44.318 47.7075C44.6325 46.9474 45.0938 46.2569 45.6755 45.6755C46.8498 44.5011 48.444 43.8406 50.1045 43.8429H187.895C188.717 43.8421 189.532 44.0035 190.292 44.318C191.052 44.6325 191.742 45.0938 192.324 45.6755C193.501 46.8498 194.159 48.444 194.159 50.1045V187.895C194.159 189.555 193.501 191.15 192.324 192.324C191.743 192.906 191.052 193.368 190.292 193.682C189.532 193.997 188.718 194.159 187.895 194.159H50.1045C49.2819 194.159 48.4673 193.997 47.7073 193.682C46.9473 193.368 46.2568 192.906 45.6755 192.324C44.5011 191.15 43.8406 189.555 43.8429 187.895Z" fill="#FFFEFE"/>
<path d="M56.3691 181.631H181.632V56.3684H56.3691V181.631ZM131.527 87.6834C131.527 86.0229 132.185 84.4288 133.36 83.2544C133.942 82.6727 134.633 82.2114 135.393 81.8969C136.153 81.5825 136.968 81.421 137.791 81.4218H150.317C153.775 81.4218 156.581 84.2244 156.581 87.6834C156.581 91.1425 153.776 93.9474 150.317 93.9474V144.052C153.775 144.052 156.581 146.857 156.581 150.316C156.581 153.775 153.776 156.58 150.317 156.58H137.791C134.333 156.58 131.527 153.775 131.527 150.316C131.527 146.857 134.332 144.052 137.791 144.052V93.9474C136.129 93.948 134.536 93.2888 133.36 92.1148C132.186 90.939 131.526 89.3451 131.527 87.6834ZM81.4226 100.211C81.4226 89.8325 89.8332 81.4218 100.212 81.4218C110.589 81.4218 119.002 89.8325 119.002 100.211V150.316C119.002 153.774 116.197 156.58 112.738 156.58C109.279 156.58 106.474 153.775 106.474 150.316V131.526H93.9481V150.316C93.9481 153.774 91.1432 156.58 87.6842 156.58C84.2251 156.58 81.4226 153.775 81.4226 150.316V100.211Z" fill="#FFFEFE"/>
<path d="M106.473 100.211C106.473 96.7529 103.67 93.9474 100.211 93.9474C96.7522 93.9474 93.9473 96.7523 93.9473 100.211V119.001H106.473V100.211Z" fill="#FFFEFE"/>
</svg>
