<svg width="238" height="238" viewBox="0 0 238 238" fill="none" xmlns="http://www.w3.org/2000/svg">
<g clip-path="url(#clip0_3577_3)">
<path d="M175.246 112.492C140.643 112.492 112.492 140.643 112.492 175.246C112.492 209.85 140.643 238 175.246 238C209.85 238 238 209.85 238 175.246C238 140.643 209.85 112.492 175.246 112.492ZM203.137 182.219H175.246C171.393 182.219 168.273 179.1 168.273 175.246V147.355C168.273 143.502 171.393 140.383 175.246 140.383C179.1 140.383 182.219 143.502 182.219 147.355V168.273H203.137C206.99 168.273 210.109 171.393 210.109 175.246C210.109 179.1 206.99 182.219 203.137 182.219ZM223.59 21.3828C223.59 17.4772 220.523 14.4102 216.617 14.4102H181.754V35.3281C181.754 39.2319 178.687 42.3008 174.781 42.3008C170.876 42.3008 167.809 39.2319 167.809 35.3281V14.4102H139.918V35.3281C139.918 39.2319 136.851 42.3008 132.945 42.3008C129.04 42.3008 125.973 39.2319 125.973 35.3281V14.4102H98.082V35.3281C98.082 39.2319 95.015 42.3008 91.1094 42.3008C87.2038 42.3008 84.1367 39.2319 84.1367 35.3281V14.4102H56.2461V35.3281C56.2461 39.2319 53.1791 42.3008 49.2734 42.3008C45.3678 42.3008 42.3008 39.2319 42.3008 35.3281V14.4102H6.97266C3.06704 14.4102 0 17.4772 0 21.3828V56.2461H223.59V21.3828Z" fill="white"/>
<path d="M105.055 139.918H106.729C109.275 134.972 112.147 130.224 115.662 125.973H105.055C101.201 125.973 98.082 122.854 98.082 119C98.082 115.146 101.201 112.027 105.055 112.027H119C121.856 112.027 124.295 113.751 125.373 116.207C138.733 104.922 155.964 98.082 174.781 98.082H160.836C156.982 98.082 153.863 94.9629 153.863 91.1094C153.863 87.2558 156.982 84.1367 160.836 84.1367H174.781C178.635 84.1367 181.754 87.2558 181.754 91.1094C181.754 94.9629 178.635 98.082 174.781 98.082C193.308 98.082 210.32 104.687 223.59 115.662V70.1914H0V202.672C0 206.525 3.1191 209.645 6.97266 209.645H106.549C101.176 199.171 98.082 187.339 98.082 174.781C98.082 167.106 99.458 159.792 101.567 152.796C99.5203 151.581 98.082 149.445 98.082 146.891C98.082 143.037 101.201 139.918 105.055 139.918ZM105.055 84.1367H119C122.854 84.1367 125.973 87.2558 125.973 91.1094C125.973 94.9629 122.854 98.082 119 98.082H105.055C101.201 98.082 98.082 94.9629 98.082 91.1094C98.082 87.2558 101.201 84.1367 105.055 84.1367ZM63.2188 181.754H49.2734C45.4199 181.754 42.3008 178.635 42.3008 174.781C42.3008 170.928 45.4199 167.809 49.2734 167.809H63.2188C67.0723 167.809 70.1914 170.928 70.1914 174.781C70.1914 178.635 67.0723 181.754 63.2188 181.754ZM63.2188 153.863H49.2734C45.4199 153.863 42.3008 150.744 42.3008 146.891C42.3008 143.037 45.4199 139.918 49.2734 139.918H63.2188C67.0723 139.918 70.1914 143.037 70.1914 146.891C70.1914 150.744 67.0723 153.863 63.2188 153.863ZM63.2188 125.973H49.2734C45.4199 125.973 42.3008 122.854 42.3008 119C42.3008 115.146 45.4199 112.027 49.2734 112.027H63.2188C67.0723 112.027 70.1914 115.146 70.1914 119C70.1914 122.854 67.0723 125.973 63.2188 125.973ZM63.2188 98.082H49.2734C45.4199 98.082 42.3008 94.9629 42.3008 91.1094C42.3008 87.2558 45.4199 84.1367 49.2734 84.1367H63.2188C67.0723 84.1367 70.1914 87.2558 70.1914 91.1094C70.1914 94.9629 67.0723 98.082 63.2188 98.082ZM56.2461 6.97266C56.2461 3.06704 53.1791 0 49.2734 0C45.3678 0 42.3008 3.06704 42.3008 6.97266V14.4102H56.2461V6.97266ZM98.082 6.97266C98.082 3.06704 95.015 0 91.1094 0C87.2038 0 84.1367 3.06704 84.1367 6.97266V14.4102H98.082V6.97266ZM139.918 6.97266C139.918 3.06704 136.851 0 132.945 0C129.04 0 125.973 3.06704 125.973 6.97266V14.4102H139.918V6.97266ZM181.754 6.97266C181.754 3.06704 178.687 0 174.781 0C170.876 0 167.809 3.06704 167.809 6.97266V14.4102H181.754V6.97266Z" fill="white"/>
</g>
<defs>
<clipPath id="clip0_3577_3">
<rect width="238" height="238" fill="white"/>
</clipPath>
</defs>
</svg>
